<?xml version="1.0" encoding="UTF-8" standalone="no"?>
<svg
   xmlns:dc="http://purl.org/dc/elements/1.1/"
   xmlns:cc="http://creativecommons.org/ns#"
   xmlns:rdf="http://www.w3.org/1999/02/22-rdf-syntax-ns#"
   xmlns:svg="http://www.w3.org/2000/svg"
   xmlns="http://www.w3.org/2000/svg"
   xmlns:sodipodi="http://sodipodi.sourceforge.net/DTD/sodipodi-0.dtd"
   xmlns:inkscape="http://www.inkscape.org/namespaces/inkscape"
   width="107.39963mm"
   height="133.34998mm"
   viewBox="0 0 107.39963 133.34998"
   version="1.1"
   id="svg8"
   inkscape:version="1.0.1 (3bc2e813f5, 2020-09-07)"
   sodipodi:docname="document-icon.svg">
  <defs
     id="defs2">
    <inkscape:path-effect
       effect="bspline"
       id="path-effect50"
       is_visible="true"
       lpeversion="1"
       weight="33.333333"
       steps="2"
       helper_size="0"
       apply_no_weight="true"
       apply_with_weight="true"
       only_selected="false" />
    <inkscape:path-effect
       effect="bspline"
       id="path-effect46"
       is_visible="true"
       lpeversion="1"
       weight="33.333333"
       steps="2"
       helper_size="0"
       apply_no_weight="true"
       apply_with_weight="true"
       only_selected="false" />
    <inkscape:path-effect
       effect="bspline"
       id="path-effect36"
       is_visible="true"
       lpeversion="1"
       weight="33.333333"
       steps="2"
       helper_size="0"
       apply_no_weight="true"
       apply_with_weight="true"
       only_selected="false" />
  </defs>
  <sodipodi:namedview
     id="base"
     pagecolor="#ffffff"
     bordercolor="#666666"
     borderopacity="1.0"
     inkscape:pageopacity="0.0"
     inkscape:pageshadow="2"
     inkscape:zoom="1.4"
     inkscape:cx="236.9793"
     inkscape:cy="264.24788"
     inkscape:document-units="mm"
     inkscape:current-layer="layer1"
     inkscape:document-rotation="0"
     showgrid="false"
     inkscape:snap-global="false"
     fit-margin-top="0"
     fit-margin-left="0"
     fit-margin-right="0"
     fit-margin-bottom="0"
     inkscape:pagecheckerboard="true"
     inkscape:window-width="1920"
     inkscape:window-height="1017"
     inkscape:window-x="-8"
     inkscape:window-y="-8"
     inkscape:window-maximized="1" />
  <metadata
     id="metadata5">
    <rdf:RDF>
      <cc:Work
         rdf:about="">
        <dc:format>image/svg+xml</dc:format>
        <dc:type
           rdf:resource="http://purl.org/dc/dcmitype/StillImage" />
        <dc:title></dc:title>
      </cc:Work>
    </rdf:RDF>
  </metadata>
  <g
     inkscape:label="Layer 1"
     inkscape:groupmode="layer"
     id="layer1"
     transform="translate(-57.879751,-21.54464)">
    <path
       style="fill:#000000;stroke-width:0.264583"
       d="m 61.253111,153.54679 c -0.75883,-0.78728 -1.70147,-2.19031 -2.26646,-3.37344 l -0.9673,-2.02558 -0.0698,-46.03308 -0.0698,-46.033083 17.26697,-17.268483 17.26697,-17.268484 31.221599,0.0031 c 25.2245,0.0025 31.4757,0.07112 32.5445,0.357051 4.44088,1.188037 7.90872,4.780653 8.8465,9.16481 0.23468,1.097135 0.29135,15.680473 0.23031,59.266671 l -0.081,57.811458 -0.9673,2.02558 c -0.565,1.18313 -1.50763,2.58616 -2.26647,3.37344 l -1.29916,1.34786 h -49.0452 -49.045199 z m 94.590329,-1.61287 c 1.52026,-0.68907 3.50842,-2.701 4.07222,-4.1209 0.48146,-1.2125 0.49744,-3.0887 0.49744,-58.40275 0,-46.57726 -0.0644,-57.331865 -0.34823,-58.133038 -0.48631,-1.37283 -2.44992,-3.467554 -3.94834,-4.211983 l -1.25968,-0.625817 -28.23403,-0.07305 -28.234039,-0.07305 -0.0764,15.154298 -0.0764,15.154297 -0.79375,1.434693 c -1.01874,1.841352 -2.87608,3.323773 -4.63777,3.701587 -0.87306,0.187238 -6.37159,0.287679 -15.74862,0.287679 h -14.40722 l 0.0666,42.399474 c 0.0746,47.50378 -0.11878,43.18994 2.0413,45.53334 1.20181,1.30382 2.50057,2.03327 4.11071,2.30881 0.58209,0.0996 20.16787,0.16592 43.523959,0.14734 39.26109,-0.0312 42.54008,-0.0675 43.45222,-0.48094 z M 79.582891,126.31964 c 0,-2.09065 0.0565,-2.38151 0.46302,-2.38338 0.38536,-0.002 62.759649,-2.6e-4 63.367709,0.002 0.10914,2.9e-4 0.19844,1.07212 0.19844,2.3818 v 2.38125 H 111.59747 79.582891 Z m 0,-13.09794 v -2.5146 l 31.948439,0.0672 31.94843,0.0672 0.0761,2.44739 0.0761,2.4474 H 111.60745 79.582941 Z m 0.59531,-10.63129 c -0.56396,-0.11375 -0.59531,-0.24453 -0.59531,-2.48292 v -2.362844 h 32.014579 32.01459 v 2.381254 2.38124 l -30.89011,0.004 c -16.989559,0.002 -31.128229,0.0477 -31.419269,0.10167 -0.29104,0.0539 -0.79706,0.044 -1.12448,-0.022 z m -0.59531,-15.429098 v -2.381251 h 32.014579 32.01459 v 2.381251 2.38125 H 111.59747 79.582891 Z m 0,-12.93374 c 0,-2.232332 0.0299,-2.355278 0.59531,-2.447396 0.32742,-0.05334 14.73398,-0.06579 32.014589,-0.02765 l 31.41927,0.06935 v 2.378049 2.378051 H 111.59747 79.582891 Z m 13.06079,-17.9263 0.69754,-0.697539 V 41.749187 c 0,-7.620001 -0.0302,-13.854547 -0.067,-13.854547 -0.0369,0 -6.61467,6.548438 -14.61733,14.552085 l -14.55027,14.552084 h 13.91979 13.91978 z"
       id="path56" />
    <path
       style="fill:#ffffff;stroke-width:0.714286"
       d="m 85.737405,496.04968 -43.214286,-0.37323 -4.07971,-2.0034 C 32.543654,490.7759 25.484925,483.69167 24.426006,479.60502 22.650155,472.75155 22.15642,436.02123 21.98551,298.04985 l -0.176676,-142.6266 56.785714,-0.23054 56.785712,-0.23054 4.08434,-1.91433 c 5.3334,-2.49976 10.70565,-7.59553 14.18885,-13.45863 l 2.79824,-4.71013 0.004,-50.315603 c 0.002,-27.673577 0.21326,-53.480455 0.46939,-57.348616 l 0.46582,-7.033022 106.49489,0.507319 106.4949,0.507318 3.51359,1.882846 c 4.70685,2.522276 9.59453,7.015735 12.98484,11.937545 l 2.78729,4.046372 0.46078,37.235179 c 0.62374,50.403742 0.61963,343.788932 -0.005,375.449462 -0.58456,29.61738 -0.41694,28.90124 -8.56333,36.58612 -8.54937,8.06505 0.18932,7.25152 -83.6779,7.78997 -80.64753,0.51778 -146.24998,0.4948 -212.142854,-0.0743 z M 327.87051,399.7836 c -0.006,-4.22322 -0.20357,-8.40179 -0.44046,-9.28572 l -0.43069,-1.60714 H 206.4448 c -109.271066,0 -120.595134,0.10575 -120.988117,1.12985 -0.23846,0.62141 -0.433564,4.79998 -0.433564,9.28571 v 8.15587 H 206.45169 327.88026 l -0.01,-7.67857 z m -0.28661,-50.69836 c -0.27782,-5.00017 -0.67297,-9.2591 -0.87812,-9.46429 -0.20514,-0.20519 -54.66766,-0.48548 -121.02783,-0.62286 L 85.023119,338.7483 v 9.71407 9.71408 H 206.55606 328.08901 Z m -50.23935,-40.90839 50.53571,-4e-4 v -9.28571 -9.28572 H 206.45169 85.023119 v 8.26125 c 0,4.74491 0.341437,8.89922 0.802168,9.7601 l 0.802167,1.49887 70.090686,-0.47399 c 38.54989,-0.2607 92.83176,-0.47418 120.62641,-0.4744 z m 50.53571,-57.85754 V 241.0336 H 206.45169 85.023119 v 9.28571 9.28571 H 206.45169 327.88026 Z m 0,-49.28571 v -9.28572 H 207.30883 c -92.8254,0 -120.768671,0.19725 -121.428568,0.85714 -0.569814,0.56982 -0.857143,3.68255 -0.857143,9.28572 v 8.42857 H 206.45169 327.88026 Z"
       id="path58"
       transform="matrix(0.26458333,0,0,0.26458333,56.979912,20.977676)" />
    <path
       style="fill:#ffffff;stroke-width:0.714286"
       d="m 82.165976,81.563566 54.642854,-54.458541 0.18331,51.750748 0.18331,51.750747 -2.6497,2.71354 -2.6497,2.71354 -52.176465,-0.006 -52.176466,-0.006 z"
       id="path60"
       transform="matrix(0.26458333,0,0,0.26458333,56.979912,20.977676)" />
  </g>
</svg>
