<?xml version="1.0" encoding="UTF-8" standalone="no"?>
<svg
   xmlns:dc="http://purl.org/dc/elements/1.1/"
   xmlns:cc="http://creativecommons.org/ns#"
   xmlns:rdf="http://www.w3.org/1999/02/22-rdf-syntax-ns#"
   xmlns:svg="http://www.w3.org/2000/svg"
   xmlns="http://www.w3.org/2000/svg"
   xmlns:sodipodi="http://sodipodi.sourceforge.net/DTD/sodipodi-0.dtd"
   xmlns:inkscape="http://www.inkscape.org/namespaces/inkscape"
   width="169.29793mm"
   height="165.07715mm"
   viewBox="0 0 169.29793 165.07715"
   version="1.1"
   id="svg8"
   inkscape:version="1.0.1 (3bc2e813f5, 2020-09-07)"
   sodipodi:docname="github-logo.png.svg">
  <defs
     id="defs2">
    <inkscape:path-effect
       effect="bspline"
       id="path-effect50"
       is_visible="true"
       lpeversion="1"
       weight="33.333333"
       steps="2"
       helper_size="0"
       apply_no_weight="true"
       apply_with_weight="true"
       only_selected="false" />
    <inkscape:path-effect
       effect="bspline"
       id="path-effect46"
       is_visible="true"
       lpeversion="1"
       weight="33.333333"
       steps="2"
       helper_size="0"
       apply_no_weight="true"
       apply_with_weight="true"
       only_selected="false" />
    <inkscape:path-effect
       effect="bspline"
       id="path-effect36"
       is_visible="true"
       lpeversion="1"
       weight="33.333333"
       steps="2"
       helper_size="0"
       apply_no_weight="true"
       apply_with_weight="true"
       only_selected="false" />
  </defs>
  <sodipodi:namedview
     id="base"
     pagecolor="#ffffff"
     bordercolor="#666666"
     borderopacity="1.0"
     inkscape:pageopacity="0.0"
     inkscape:pageshadow="2"
     inkscape:zoom="0.98994949"
     inkscape:cx="401.36888"
     inkscape:cy="316.72645"
     inkscape:document-units="mm"
     inkscape:current-layer="layer1"
     inkscape:document-rotation="0"
     showgrid="false"
     inkscape:snap-global="false"
     fit-margin-top="0"
     fit-margin-left="0"
     fit-margin-right="0"
     fit-margin-bottom="0"
     inkscape:pagecheckerboard="true"
     inkscape:window-width="1920"
     inkscape:window-height="1017"
     inkscape:window-x="-8"
     inkscape:window-y="-8"
     inkscape:window-maximized="1" />
  <metadata
     id="metadata5">
    <rdf:RDF>
      <cc:Work
         rdf:about="">
        <dc:format>image/svg+xml</dc:format>
        <dc:type
           rdf:resource="http://purl.org/dc/dcmitype/StillImage" />
        <dc:title></dc:title>
      </cc:Work>
    </rdf:RDF>
  </metadata>
  <g
     inkscape:label="Layer 1"
     inkscape:groupmode="layer"
     id="layer1"
     transform="translate(-25.460283,-1.2862355)">
    <path
       style="fill:#000000;stroke-width:0.264583"
       d="m 81.113694,165.45318 c -5.95257,-2.18279 -12.31033,-5.40881 -17.59479,-8.92785 -12.81456,-8.5335 -22.56511,-19.59188 -29.24476,-33.16733 -2.60148,-5.28713 -3.72102,-8.08734 -5.23622,-13.09687 -6.128,-20.260379 -4.33434,-42.326042 5.00117,-61.52463 C 45.870114,24.405872 69.181954,6.940994 95.800244,2.4659745 106.10025,0.73435791 117.54217,0.91581801 127.28349,2.9652742 140.32569,5.7091993 152.4848,11.42984 163.00224,19.7703 c 3.56362,2.825999 10.40586,9.666944 13.20793,13.205441 5.08588,6.422528 9.18959,13.386235 12.19014,20.685824 10.6562,25.923844 7.7882,55.554815 -7.63416,78.872885 -3.1633,4.78281 -6.39187,8.69462 -10.88142,13.18417 -8.94451,8.9445 -18.57821,15.16151 -30.33944,19.57923 -2.92023,1.09689 -4.85872,1.34199 -5.99534,0.75803 -1.13042,-0.58076 -2.04449,-1.66531 -2.19323,-2.60227 -0.0818,-0.5155 -0.17372,-7.24759 -0.20421,-14.96019 -0.0533,-13.48588 -0.0776,-14.10627 -0.63378,-16.19935 -0.78116,-2.93959 -1.82426,-5.14654 -3.43579,-7.26929 l -1.34586,-1.77281 1.23622,-0.16714 c 12.11296,-1.63769 20.20313,-4.88515 26.12801,-10.48803 5.30015,-5.01209 8.64835,-11.73069 10.19602,-20.459629 0.83062,-4.684747 0.9052,-14.360046 0.13767,-17.859375 -1.14968,-5.241639 -3.52011,-10.161101 -6.73979,-13.987452 l -1.19465,-1.419744 0.34288,-1.22609 c 0.98915,-3.537161 1.15613,-4.787117 1.15353,-8.634423 -0.003,-4.258834 -0.32786,-6.334085 -1.63659,-10.451042 l -0.71491,-2.248958 -1.69205,-0.08006 c -4.54321,-0.214961 -12.28355,2.700891 -19.28554,7.265017 l -2.26513,1.476486 -3.05182,-0.697849 c -6.77454,-1.549114 -9.80513,-1.857272 -18.26536,-1.857272 -8.44257,0 -11.157126,0.274227 -18.076506,1.826117 l -3.1209,0.699963 -2.16744,-1.381209 c -7.09342,-4.520302 -14.50101,-7.383485 -19.10245,-7.383485 h -1.91819 l -0.55946,1.521354 c -1.53919,4.185524 -2.30519,9.915322 -1.87754,14.044386 0.26423,2.551162 0.90079,5.585026 1.35507,6.458257 0.18605,0.357637 -0.0744,0.841031 -1.16628,2.164794 -3.71098,4.498988 -6.20941,10.309395 -7.05876,16.415989 -0.82435,5.926862 0.1244,15.795284 2.09969,21.839908 4.5171,13.822867 15.05944,21.634757 32.67506,24.212277 1.74625,0.25551 3.21136,0.49429 3.2558,0.53061 0.0444,0.0363 -0.24007,0.40671 -0.63225,0.82309 -1.90932,2.02715 -3.85104,6.18927 -4.23391,9.07548 -0.16541,1.24691 -0.26112,1.39592 -1.13721,1.77057 -2.2944,0.98116 -5.97023,1.7177 -8.62952,1.72913 -6.41005,0.0276 -10.88876,-2.62835 -15.02131,-8.90772 -3.77808,-5.74075 -8.4729,-8.86354 -13.32547,-8.86354 -2.22213,0 -3.53551,0.53215 -3.53551,1.4325 0,0.86839 1.23519,2.25241 3.12041,3.49639 4.14307,2.73386 6.33394,5.64343 9.73646,12.93048 1.06428,2.27933 1.53297,2.94106 3.38354,4.7771 5.23449,5.19336 13.14389,6.95367 23.03146,5.12585 0.83917,-0.15512 1.58061,-0.2272 1.64765,-0.16017 0.067,0.067 0.19292,3.74995 0.27973,8.18425 0.15428,7.88005 0.14495,8.089 -0.41239,9.24031 -1.19611,2.47083 -3.54353,2.91485 -7.58165,1.43409 z m -2.24296,-25.28813 c -0.85956,-0.85957 -0.0808,-1.85809 1.44921,-1.85809 1.04682,0 1.71979,0.4659 1.71979,1.19063 0,1.19345 -2.18318,1.65328 -3.169,0.66746 z m 6.39692,-0.58809 c -0.88834,-0.88833 0.10527,-2.06375 1.74455,-2.06375 0.83998,0 1.16326,0.1288 1.39089,0.55413 0.24535,0.45845 0.19331,0.66404 -0.30139,1.19063 -0.65908,0.70155 -2.27015,0.88289 -2.83405,0.31899 z M 72.309024,139.218 c -0.8354,-0.58514 -0.77845,-1.64549 0.10645,-1.98193 0.84883,-0.32272 2.56345,0.4072 2.7008,1.14975 0.21312,1.15221 -1.58804,1.68615 -2.80725,0.83218 z m -5.71201,-3.56305 c -0.38327,-0.45549 -0.69686,-0.92836 -0.69686,-1.05082 0,-1.27226 1.73214,-1.49969 2.63922,-0.34653 0.32259,0.41012 0.5275,1.00035 0.48222,1.38907 -0.0632,0.54214 -0.24191,0.6918 -0.90322,0.75619 -0.6526,0.0635 -0.96978,-0.0924 -1.52136,-0.74791 z m -3.98063,-4.77662 c -0.79092,-0.93995 -0.8497,-1.36469 -0.26921,-1.94518 0.53899,-0.53898 0.69647,-0.52536 1.53292,0.1326 1.13636,0.89386 0.89933,2.62663 -0.35931,2.62663 -0.12068,0 -0.52766,-0.36633 -0.9044,-0.81405 z m -3.17745,-4.50832 c -0.89083,-0.70072 -0.87376,-1.90763 0.0288,-2.03609 1.19007,-0.16938 2.31816,2.026 1.2514,2.43536 -0.55251,0.21201 -0.47063,0.23755 -1.28021,-0.39927 z m -3.70344,-3.49252 c -0.62217,-0.45493 -0.4406,-1.34874 0.29536,-1.45399 0.81116,-0.11599 1.81286,0.91104 1.38794,1.42304 -0.39272,0.4732 -1.06166,0.4855 -1.6833,0.031 z"
       id="path480" />
  </g>
</svg>
