<?xml version="1.0" encoding="UTF-8" standalone="no"?>
<svg
   xmlns:dc="http://purl.org/dc/elements/1.1/"
   xmlns:cc="http://creativecommons.org/ns#"
   xmlns:rdf="http://www.w3.org/1999/02/22-rdf-syntax-ns#"
   xmlns:svg="http://www.w3.org/2000/svg"
   xmlns="http://www.w3.org/2000/svg"
   xmlns:sodipodi="http://sodipodi.sourceforge.net/DTD/sodipodi-0.dtd"
   xmlns:inkscape="http://www.inkscape.org/namespaces/inkscape"
   width="60.489731mm"
   height="54.485634mm"
   viewBox="0 0 60.489731 54.485634"
   version="1.1"
   id="svg8"
   inkscape:version="1.0.1 (3bc2e813f5, 2020-09-07)"
   sodipodi:docname="HomeIcon.svg">
  <defs
     id="defs2">
    <inkscape:path-effect
       effect="bspline"
       id="path-effect50"
       is_visible="true"
       lpeversion="1"
       weight="33.333333"
       steps="2"
       helper_size="0"
       apply_no_weight="true"
       apply_with_weight="true"
       only_selected="false" />
    <inkscape:path-effect
       effect="bspline"
       id="path-effect46"
       is_visible="true"
       lpeversion="1"
       weight="33.333333"
       steps="2"
       helper_size="0"
       apply_no_weight="true"
       apply_with_weight="true"
       only_selected="false" />
    <inkscape:path-effect
       effect="bspline"
       id="path-effect36"
       is_visible="true"
       lpeversion="1"
       weight="33.333333"
       steps="2"
       helper_size="0"
       apply_no_weight="true"
       apply_with_weight="true"
       only_selected="false" />
  </defs>
  <sodipodi:namedview
     id="base"
     pagecolor="#ffffff"
     bordercolor="#666666"
     borderopacity="1.0"
     inkscape:pageopacity="0.0"
     inkscape:pageshadow="2"
     inkscape:zoom="2.8"
     inkscape:cx="157.50813"
     inkscape:cy="103.36825"
     inkscape:document-units="mm"
     inkscape:current-layer="layer1"
     inkscape:document-rotation="0"
     showgrid="false"
     inkscape:snap-global="false"
     fit-margin-top="0"
     fit-margin-left="0"
     fit-margin-right="0"
     fit-margin-bottom="0"
     inkscape:pagecheckerboard="true"
     inkscape:window-width="1920"
     inkscape:window-height="1017"
     inkscape:window-x="-8"
     inkscape:window-y="-8"
     inkscape:window-maximized="1" />
  <metadata
     id="metadata5">
    <rdf:RDF>
      <cc:Work
         rdf:about="">
        <dc:format>image/svg+xml</dc:format>
        <dc:type
           rdf:resource="http://purl.org/dc/dcmitype/StillImage" />
        <dc:title></dc:title>
      </cc:Work>
    </rdf:RDF>
  </metadata>
  <g
     inkscape:label="Layer 1"
     inkscape:groupmode="layer"
     id="layer1"
     transform="translate(-100.39869,-55.108567)">
    <path
       style="fill:#000000;stroke-width:0.264583"
       d="m 110.55047,108.69461 -0.89958,-0.89958 0.006,-11.998854 0.006,-11.998853 10.00695,-9.988021 c 9.21035,-9.192932 10.07806,-9.98802 10.90027,-9.98802 0.82232,0 1.68793,0.793584 10.88944,9.983338 l 9.99551,9.983339 v 11.857923 c 0,12.862088 -0.0123,12.978168 -1.44782,13.632218 -0.47618,0.21696 -2.68128,0.3161 -7.0313,0.3161 h -6.33755 l -0.0149,-7.60678 c -0.0162,-8.248432 -0.12441,-9.022103 -1.39353,-9.963234 -0.67622,-0.501451 -1.10494,-0.553947 -4.52401,-0.553947 -2.81083,0 -3.96223,0.09913 -4.50109,0.387519 -1.41478,0.757161 -1.4727,1.14205 -1.4727,9.785802 v 7.95064 h -6.64104 -6.64104 z M 101.5811,86.520462 c -0.86098,-0.493774 -1.17329,-1.071764 -1.18221,-2.187972 -0.008,-1.039228 0.16043,-1.221605 13.55148,-14.646129 9.12591,-9.148723 13.90596,-13.755808 14.61823,-14.089252 1.18808,-0.556196 2.64045,-0.64463 3.75309,-0.228524 1.11305,0.416263 28.33666,27.698652 28.53357,28.595179 0.18522,0.84328 -0.43224,2.201796 -1.18347,2.603841 -0.27997,0.149834 -0.90109,0.272426 -1.38026,0.272426 -0.79729,0 -2.01134,-1.139296 -14.30489,-13.424095 L 130.55297,59.991841 117.11931,73.415936 c -11.78092,11.772526 -13.53057,13.423105 -14.22135,13.416049 -0.43323,-0.0044 -1.02582,-0.144611 -1.31686,-0.311523 z"
       id="path504" />
  </g>
</svg>
