<?xml version="1.0" encoding="UTF-8" standalone="no"?>
<svg
   xmlns:dc="http://purl.org/dc/elements/1.1/"
   xmlns:cc="http://creativecommons.org/ns#"
   xmlns:rdf="http://www.w3.org/1999/02/22-rdf-syntax-ns#"
   xmlns:svg="http://www.w3.org/2000/svg"
   xmlns="http://www.w3.org/2000/svg"
   xmlns:sodipodi="http://sodipodi.sourceforge.net/DTD/sodipodi-0.dtd"
   xmlns:inkscape="http://www.inkscape.org/namespaces/inkscape"
   width="187.85417mm"
   height="187.06041mm"
   viewBox="0 0 187.85417 187.06041"
   version="1.1"
   id="svg8"
   inkscape:version="1.0.1 (3bc2e813f5, 2020-09-07)"
   sodipodi:docname="linkedin-logo.svg">
  <defs
     id="defs2">
    <inkscape:path-effect
       effect="bspline"
       id="path-effect50"
       is_visible="true"
       lpeversion="1"
       weight="33.333333"
       steps="2"
       helper_size="0"
       apply_no_weight="true"
       apply_with_weight="true"
       only_selected="false" />
    <inkscape:path-effect
       effect="bspline"
       id="path-effect46"
       is_visible="true"
       lpeversion="1"
       weight="33.333333"
       steps="2"
       helper_size="0"
       apply_no_weight="true"
       apply_with_weight="true"
       only_selected="false" />
    <inkscape:path-effect
       effect="bspline"
       id="path-effect36"
       is_visible="true"
       lpeversion="1"
       weight="33.333333"
       steps="2"
       helper_size="0"
       apply_no_weight="true"
       apply_with_weight="true"
       only_selected="false" />
  </defs>
  <sodipodi:namedview
     id="base"
     pagecolor="#ffffff"
     bordercolor="#666666"
     borderopacity="1.0"
     inkscape:pageopacity="0.0"
     inkscape:pageshadow="2"
     inkscape:zoom="0.98994949"
     inkscape:cx="406.7409"
     inkscape:cy="365.52368"
     inkscape:document-units="mm"
     inkscape:current-layer="layer1"
     inkscape:document-rotation="0"
     showgrid="false"
     inkscape:snap-global="false"
     fit-margin-top="0"
     fit-margin-left="0"
     fit-margin-right="0"
     fit-margin-bottom="0"
     inkscape:pagecheckerboard="true"
     inkscape:window-width="1920"
     inkscape:window-height="1017"
     inkscape:window-x="-8"
     inkscape:window-y="-8"
     inkscape:window-maximized="1" />
  <metadata
     id="metadata5">
    <rdf:RDF>
      <cc:Work
         rdf:about="">
        <dc:format>image/svg+xml</dc:format>
        <dc:type
           rdf:resource="http://purl.org/dc/dcmitype/StillImage" />
        <dc:title></dc:title>
      </cc:Work>
    </rdf:RDF>
  </metadata>
  <g
     inkscape:label="Layer 1"
     inkscape:groupmode="layer"
     id="layer1"
     transform="translate(-9.000164,14.721279)">
    <path
       style="fill:#007bb6;fill-opacity:1;stroke-width:0.264583"
       d="m 20.909101,172.33867 c -4.410444,-0.77209 -8.467584,-3.77812 -10.232093,-7.58119 -1.4821264,-3.19444 -1.3999994,1.82311 -1.4049804,-85.8374 -0.0045,-79.69803515 0.0029,-80.8832846 0.518791,-82.9004422 0.2878624,-1.1255287 0.8534094,-2.6595334 1.2567714,-3.4088992 1.50412,-2.7943536 4.562357,-5.1736306 8.274011,-6.4370966 1.409821,-0.47991 4.021665,-0.49536 83.740629,-0.49536 h 82.28542 l 1.7837,0.693954 c 3.85469,1.499677 6.17268,3.430915 7.8139,6.5101495 1.76578,3.3129417 1.63937,-3.3334305 1.63937,86.1938095 0,89.587305 0.12862,82.875985 -1.65244,86.219005 -1.57551,2.9572 -4.08073,5.035 -7.83311,6.49667 l -1.75142,0.68224 -81.62396,0.0365 c -44.893179,0.0201 -82.159745,-0.0573 -82.814589,-0.17193 z m 44.12004,-72.02966 -0.0669,-44.780731 H 50.939311 36.916393 l -0.06691,44.780731 -0.06691,44.78073 h 14.156738 14.15674 z m 45.123459,20.24062 c 0.14655,-28.682451 0.21968,-29.647801 2.62981,-34.716093 2.4572,-5.167286 6.94631,-7.688861 13.67162,-7.679473 4.87083,0.0068 7.71901,1.037233 10.11588,3.659793 2.00918,2.198362 2.96324,4.380757 3.83465,8.771713 0.39582,1.994508 0.45805,5.205063 0.55002,28.37656 l 0.1037,26.12761 h 14.02146 14.02145 l -0.10294,-29.56719 c -0.11051,-31.739968 -0.1049,-31.599726 -1.5243,-38.166147 -2.95743,-13.681773 -10.33477,-21.072307 -23.40131,-23.443164 -3.76394,-0.682948 -12.08654,-0.692743 -15.15958,-0.01783 -7.99569,1.756023 -14.55154,5.987147 -18.55796,11.977248 l -1.33975,2.003081 v -6.242299 -6.242298 l -13.427599,0.06857 -13.42761,0.06857 -0.0679,44.449995 c -0.0374,24.447504 -0.0113,44.598834 0.0578,44.780734 0.0984,0.25878 3.14437,0.33073 14.00146,0.33073 H 110.02718 Z M 55.161201,43.063394 c 5.61009,-1.447245 10.45493,-6.508184 11.65564,-12.175522 1.70527,-8.048868 -2.76334,-16.037392 -10.53926,-18.840986 -1.65162,-0.59549 -2.32905,-0.685835 -5.20598,-0.694296 -2.80798,-0.0083 -3.60487,0.08772 -5.27837,0.635758 -7.80489,2.555929 -12.591747,11.074446 -10.713847,19.065974 1.52914,6.507352 7.183117,11.568599 14.007837,12.539326 1.28222,0.18238 4.34953,-0.0854 6.07398,-0.530254 z"
       id="path444" />
    <path
       style="fill:#ffffff;fill-opacity:1;stroke-width:1.01015"
       d="M 105.71544,434.71913 V 265.51858 h 52.52793 52.52793 v 47.81483 c 0,26.29815 0.30242,102.4384 0.67205,169.20054 l 0.67203,121.38573 h -53.19997 -53.19997 z"
       id="path446"
       transform="matrix(0.26458333,0,0,0.26458333,9.000164,-14.721279)" />
    <path
       style="fill:#ffffff;fill-opacity:1;stroke-width:1.01015"
       d="m 289.09527,603.1637 c -7.26287,-0.21438 -11.34275,-0.74897 -11.85382,-1.55322 -0.95285,-1.49945 -1.07208,-255.96945 -0.14178,-302.59197 l 0.66846,-33.49993 h 49.82089 49.82089 l 0.27082,23.84882 0.27082,23.84882 5.05076,-7.43384 c 9.60955,-14.14359 25.56258,-28.0039 41.41626,-35.98329 6.44205,-3.24238 20.87234,-8.06465 29.41007,-9.82817 10.71791,-2.21384 43.75581,-2.21656 56.45289,-0.005 12.28849,2.14073 29.82587,8.23005 39.42635,13.68958 10.66137,6.06284 23.39082,18.26938 30.83361,29.56701 9.47434,14.3814 16.83974,35.6716 20.79053,60.09652 1.67405,10.3495 3.1476,97.08239 3.31966,195.39597 l 0.0791,45.20432 h -52.52794 -52.52793 l -0.0895,-46.21448 c -0.0492,-25.41796 -0.44525,-71.44304 -0.88003,-102.27794 -0.75557,-53.58515 -0.89111,-56.44303 -3.06607,-64.64977 -6.41561,-24.20783 -18.83332,-36.40467 -40.14369,-39.42968 -17.29361,-2.45483 -35.52459,0.88835 -47.23634,8.66217 -11.00866,7.30713 -20.20315,23.3212 -23.27431,40.53687 -1.99185,11.16556 -3.39913,71.85009 -3.45712,149.07713 l -0.0408,54.2957 -40.65864,-0.21453 c -22.36225,-0.118 -45.64218,-0.36165 -51.73317,-0.54145 z"
       id="path448"
       transform="matrix(0.26458333,0,0,0.26458333,9.000164,-14.721279)" />
    <path
       style="fill:#ffffff;fill-opacity:1;stroke-width:1.01015"
       d="m 145.56758,218.7211 c -2.80481,-0.71984 -8.1549,-2.73853 -11.88909,-4.48598 -38.284338,-17.9154 -47.862929,-65.20598 -19.42802,-95.91832 11.88606,-12.83803 23.41597,-18.30509 40.45737,-19.183371 12.99866,-0.669927 20.20365,0.713507 30.75099,5.904521 15.43261,7.59536 27.3888,22.31414 31.89313,39.26232 2.40154,9.0361 1.95615,23.71492 -1.00219,33.03035 -5.83004,18.358 -21.52009,33.98485 -39.92365,39.76281 -8.30587,2.60771 -23.84614,3.4274 -30.85854,1.62767 z"
       id="path450"
       transform="matrix(0.26458333,0,0,0.26458333,9.000164,-14.721279)" />
  </g>
</svg>
