<?xml version="1.0" encoding="UTF-8" standalone="no"?>
<svg
   xmlns:dc="http://purl.org/dc/elements/1.1/"
   xmlns:cc="http://creativecommons.org/ns#"
   xmlns:rdf="http://www.w3.org/1999/02/22-rdf-syntax-ns#"
   xmlns:svg="http://www.w3.org/2000/svg"
   xmlns="http://www.w3.org/2000/svg"
   xmlns:sodipodi="http://sodipodi.sourceforge.net/DTD/sodipodi-0.dtd"
   xmlns:inkscape="http://www.inkscape.org/namespaces/inkscape"
   width="271.15857mm"
   height="271.15103mm"
   viewBox="0 0 271.15857 271.15103"
   version="1.1"
   id="svg8"
   inkscape:version="1.0.1 (3bc2e813f5, 2020-09-07)"
   sodipodi:docname="LinuxQuestionMark.svg">
  <defs
     id="defs2">
    <inkscape:path-effect
       effect="bspline"
       id="path-effect322"
       is_visible="true"
       lpeversion="1"
       weight="33.333333"
       steps="2"
       helper_size="0"
       apply_no_weight="true"
       apply_with_weight="true"
       only_selected="false" />
    <inkscape:path-effect
       effect="bspline"
       id="path-effect318"
       is_visible="true"
       lpeversion="1"
       weight="33.333333"
       steps="2"
       helper_size="0"
       apply_no_weight="true"
       apply_with_weight="true"
       only_selected="false" />
    <inkscape:path-effect
       effect="bspline"
       id="path-effect314"
       is_visible="true"
       lpeversion="1"
       weight="33.333333"
       steps="2"
       helper_size="0"
       apply_no_weight="true"
       apply_with_weight="true"
       only_selected="false" />
    <inkscape:path-effect
       effect="bspline"
       id="path-effect50"
       is_visible="true"
       lpeversion="1"
       weight="33.333333"
       steps="2"
       helper_size="0"
       apply_no_weight="true"
       apply_with_weight="true"
       only_selected="false" />
    <inkscape:path-effect
       effect="bspline"
       id="path-effect46"
       is_visible="true"
       lpeversion="1"
       weight="33.333333"
       steps="2"
       helper_size="0"
       apply_no_weight="true"
       apply_with_weight="true"
       only_selected="false" />
    <inkscape:path-effect
       effect="bspline"
       id="path-effect36"
       is_visible="true"
       lpeversion="1"
       weight="33.333333"
       steps="2"
       helper_size="0"
       apply_no_weight="true"
       apply_with_weight="true"
       only_selected="false" />
  </defs>
  <sodipodi:namedview
     id="base"
     pagecolor="#ffffff"
     bordercolor="#666666"
     borderopacity="1.0"
     inkscape:pageopacity="0.0"
     inkscape:pageshadow="2"
     inkscape:zoom="0.7"
     inkscape:cx="630.54315"
     inkscape:cy="509.84509"
     inkscape:document-units="mm"
     inkscape:current-layer="layer1"
     inkscape:document-rotation="0"
     showgrid="false"
     inkscape:snap-global="false"
     fit-margin-top="0"
     fit-margin-left="0"
     fit-margin-right="0"
     fit-margin-bottom="0"
     inkscape:pagecheckerboard="true"
     inkscape:window-width="1920"
     inkscape:window-height="1017"
     inkscape:window-x="-8"
     inkscape:window-y="-8"
     inkscape:window-maximized="1" />
  <metadata
     id="metadata5">
    <rdf:RDF>
      <cc:Work
         rdf:about="">
        <dc:format>image/svg+xml</dc:format>
        <dc:type
           rdf:resource="http://purl.org/dc/dcmitype/StillImage" />
        <dc:title></dc:title>
      </cc:Work>
    </rdf:RDF>
  </metadata>
  <g
     inkscape:label="Layer 1"
     inkscape:groupmode="layer"
     id="layer1"
     transform="translate(3.404029,46.817319)">
    <path
       style="fill:#1c64c7;stroke:none;stroke-width:0.264583px;stroke-linecap:butt;stroke-linejoin:miter;stroke-opacity:1;fill-opacity:1"
       d="m 139.51027,223.85471 c 0.1115,0 0.33422,0 0.96899,-0.0111 0.63477,-0.0111 1.68156,-0.0334 2.90656,-0.10022 1.22499,-0.0668 2.62812,-0.17819 4.75516,-0.44547 2.12704,-0.26728 4.97786,-0.69045 8.24079,-1.30295 3.26294,-0.61251 6.93782,-1.4143 10.54598,-2.37203 3.60816,-0.95774 7.14941,-2.07134 10.06711,-3.07361 2.91771,-1.00227 5.21173,-1.89315 7.87331,-3.02906 2.66158,-1.13591 5.69056,-2.51677 8.4969,-3.93108 2.80634,-1.41432 5.3899,-2.862 7.88443,-4.35427 2.49453,-1.49227 4.89991,-3.02903 7.29421,-4.66607 2.3943,-1.63704 4.77741,-3.37426 6.91558,-5.0447 2.13816,-1.67044 4.03128,-3.27402 5.85763,-4.87766 1.82636,-1.60363 3.58585,-3.20722 5.4122,-4.98903 1.82635,-1.7818 3.71947,-3.74174 5.45673,-5.61264 1.73726,-1.87089 3.31858,-3.65266 4.75516,-5.40105 1.43658,-1.74839 2.72835,-3.46334 4.02017,-5.22288 1.29181,-1.75953 2.58358,-3.56356 4.08699,-5.84651 1.5034,-2.28294 3.21835,-5.04467 4.6772,-7.57261 1.45885,-2.52793 2.66154,-4.82195 3.77518,-7.08262 1.11363,-2.26067 2.13814,-4.48787 3.12928,-6.78194 0.99113,-2.29408 1.94883,-4.65491 2.80633,-6.99353 0.8575,-2.33862 1.61474,-4.65491 2.33861,-7.04922 0.72386,-2.3943 1.41429,-4.8665 1.95997,-7.03807 0.54569,-2.17157 0.94658,-4.04242 1.35863,-6.25855 0.41205,-2.21613 0.83522,-4.77741 1.18045,-7.18285 0.34523,-2.40543 0.61249,-4.65491 0.80181,-6.59263 0.18933,-1.937706 0.30068,-3.563566 0.40092,-6.637204 0.10023,-3.073638 0.18932,-7.594855 0.12252,-10.813229 -0.0668,-3.218374 -0.28952,-5.133766 -0.56793,-7.583767 -0.27841,-2.450001 -0.61249,-5.434451 -1.02452,-8.240801 -0.41204,-2.80635 -0.90202,-5.434448 -1.45883,-7.962392 -0.5568,-2.527945 -1.18042,-4.955592 -1.83746,-7.283085 -0.65703,-2.327492 -1.34747,-4.554695 -2.06018,-6.670597 -0.71272,-2.115903 -1.44769,-4.120382 -2.3386,-6.425608 -0.8909,-2.305226 -1.93769,-4.911054 -3.04017,-7.34991 -1.10248,-2.438857 -2.26062,-4.710605 -3.40766,-6.859918 -1.14703,-2.149313 -2.28291,-4.176068 -3.4188,-6.09152 -1.1359,-1.915452 -2.27177,-3.719487 -3.76404,-5.913354 -1.49226,-2.193868 -3.34084,-4.7774215 -5.27855,-7.283105 -1.93772,-2.5056835 -3.96447,-4.93333054 -6.15832,-7.3610619 -2.19384,-2.4277314 -4.55468,-4.8553795 -7.14944,-7.3610654 -2.59476,-2.5056857 -5.42331,-5.0892417 -8.31875,-7.4390267 -2.89543,-2.349784 -5.85761,-4.465627 -8.97579,-6.570402 -3.11817,-2.104776 -6.39216,-4.198346 -10.03374,-6.236315 -3.64158,-2.03797 -7.65055,-4.020183 -11.49258,-5.735193 -3.84203,-1.71501 -7.51692,-3.16269 -11.35896,-4.454522 -3.84204,-1.291832 -7.851,-2.427703 -11.86009,-3.407713 -4.00909,-0.98001 -8.01805,-1.804074 -11.48145,-2.372041 -3.46341,-0.567967 -6.38105,-0.879776 -9.04264,-1.10251 -2.66159,-0.222734 -5.06696,-0.356366 -8.10719,-0.456598 -3.04024,-0.100233 -6.71512,-0.167048 -10.54604,0.03339 -3.83092,0.200442 -7.81761,0.668154 -12.01603,1.347466 -4.19841,0.679312 -8.60827,1.570193 -12.20531,2.383141 -3.597044,0.812949 -6.381046,1.547925 -9.566062,2.583604 -3.185016,1.035679 -6.770811,2.372 -9.621717,3.496769 -2.850906,1.124769 -4.966746,2.037922 -7.528122,3.27406 -2.561376,1.236138 -5.568098,2.795179 -8.374466,4.365406 -2.806369,1.570227 -5.412195,3.15154 -8.084931,4.922225 -2.672736,1.770686 -5.412193,3.730624 -7.929017,5.679491 -2.516823,1.948868 -4.81084,3.886533 -7.038116,5.868808 -2.227275,1.982275 -4.387661,4.0090286 -6.626076,6.280855 -2.238416,2.2718265 -4.554705,4.7885643 -6.704023,7.29424841 -2.149319,2.50568419 -4.13153,5.00014719 -6.002441,7.50583359 -1.87091,2.505687 -3.630399,5.022425 -5.467902,7.962439 -1.837503,2.940014 -3.752896,6.303088 -5.378801,9.376729 -1.625906,3.07364 -2.9622272,5.857642 -4.4433625,9.354475 -1.4811353,3.496833 -3.106992,7.706244 -4.3653926,11.358975 -1.2584006,3.65273 -2.1492817,6.74854 -2.99563844,10.334463 -0.84635676,3.585922 -1.64814886,7.6617 -2.26063826,11.670797 -0.6124894,4.009097 -1.0356582,7.951244 -1.2806458,11.83784 -0.2449875,3.886595 -0.3118031,7.717382 -0.2226988,11.436929 0.089104,3.719548 0.3340966,7.327615 0.7127442,11.047161 0.3786476,3.71955 0.8909033,7.55033 1.54796566,11.14737 0.65706236,3.59705 1.45885543,6.96013 2.46114124,10.50148 1.0022858,3.54136 2.2049758,7.26079 3.3743034,10.54601 1.1693275,3.28522 2.3052014,6.13604 3.5190796,8.86444 1.2138782,2.7284 2.5056523,5.33422 3.8308873,7.85104 1.325235,2.51681 2.683828,4.94446 4.20952,7.45013 1.525692,2.50567 3.218368,5.08923 4.92224,7.49467 1.703872,2.40544 3.418819,4.63264 5.701784,7.37218 2.282965,2.73954 5.133786,5.99125 7.695155,8.68623 2.561369,2.69498 4.833112,4.83309 7.071524,6.82649 2.238411,1.99339 4.443339,3.84197 7.138346,5.92445 2.695007,2.08249 5.879905,4.39878 9.14286,6.55922 3.262955,2.16043 6.603755,4.16491 9.922388,5.96898 3.318633,1.80407 6.614891,3.40766 9.788749,4.79968 3.173857,1.39203 6.22512,2.57244 9.61057,3.73061 3.38545,1.15817 7.104875,2.29404 11.024864,3.28516 3.919989,0.99111 8.040309,1.83745 11.448019,2.43879 3.40771,0.60135 6.10263,0.9577 9.04262,1.24724 2.93999,0.28953 6.12489,0.51225 9.00919,0.61247 2.8843,0.10022 5.46785,0.078 7.32759,0.0111 1.85975,-0.0668 2.99563,-0.17819 3.56346,-0.23386 0.56783,-0.0557 0.56783,-0.0557 0.67932,-0.0557 z"
       id="path312"
       inkscape:path-effect="#path-effect314"
       inkscape:original-d="m 139.39878,223.85471 c 0.22299,2.7e-4 0.44571,2.7e-4 0.66817,0 1.04709,-0.022 2.09388,-0.0443 3.14042,-0.0668 1.40346,-0.1111 2.80659,-0.22246 4.20949,-0.33409 2.8512,-0.42292 5.70202,-0.84609 8.55263,-1.26953 3.67529,-0.80156 7.35017,-1.60335 11.02487,-2.40543 3.54165,-1.11338 7.0829,-2.22698 10.62396,-3.34087 2.29437,-0.89065 4.58839,-1.78153 6.88219,-2.67269 3.02938,-1.38066 6.05837,-2.76152 9.08716,-4.14268 2.58392,-1.44747 5.16748,-2.89515 7.75082,-4.34313 2.40574,-1.53657 4.81112,-3.07333 7.21628,-4.6104 2.38346,-1.73702 4.76657,-3.47424 7.14946,-5.21175 1.89346,-1.60339 3.78658,-3.20697 5.67947,-4.81085 1.75983,-1.60339 3.51932,-3.20698 5.27857,-4.81086 1.89347,-1.95975 3.78659,-3.91969 5.67948,-5.87993 1.58164,-1.78156 3.16296,-3.56333 4.74404,-5.34539 1.29209,-1.71475 2.58387,-3.42969 3.8754,-5.14493 1.2921,-1.80385 2.58387,-3.60788 3.87541,-5.41221 1.71528,-2.76158 3.43023,-5.52331 5.14494,-8.28536 1.203,-2.29384 2.40569,-4.58786 3.60814,-6.88219 1.02482,-2.22703 2.04933,-4.45423 3.0736,-6.68174 0.958,-2.36066 1.9157,-4.72149 2.87315,-7.08264 0.75754,-2.31612 1.51479,-4.63241 2.27179,-6.94901 0.69072,-2.47202 1.38115,-4.94422 2.07134,-7.41673 0.40117,-1.87065 0.80207,-3.7415 1.20271,-5.61266 0.42345,-2.56112 0.84662,-5.1224 1.26953,-7.68399 0.26754,-2.2493 0.5348,-4.49878 0.80181,-6.74856 0.11163,-1.625657 0.22299,-3.251516 0.33408,-4.877669 0.0894,-4.521137 0.17845,-9.042355 0.26728,-13.563929 -0.22247,-1.915205 -0.44519,-3.830598 -0.66818,-5.746294 -0.33383,-2.984305 -0.66791,-5.968755 -1.00226,-8.95353 -0.48974,-2.627938 -0.97972,-5.256036 -1.46998,-7.884451 -0.62338,-2.427482 -1.24699,-4.855131 -1.87089,-7.283094 -0.69019,-2.227026 -1.38063,-4.454227 -2.07134,-6.681738 -0.73474,-2.004297 -1.46971,-4.008778 -2.20497,-6.013564 -1.04656,-2.605666 -2.09335,-5.211492 -3.14042,-7.817635 -1.15792,-2.27157 -2.31607,-4.543316 -3.4745,-6.815373 -1.13565,-2.026568 -2.27153,-4.053321 -3.40769,-6.080381 -1.13565,-1.80384 -2.27152,-3.607875 -3.40768,-5.412209 -1.84839,-2.583391 -3.69697,-5.1669442 -5.54585,-7.7508148 -2.02657,-2.4274832 -4.05332,-4.85513054 -6.08038,-7.2830953 -2.36066,-2.4274807 -4.72149,-4.8551306 -7.08264,-7.2830928 -2.82839,-2.5833941 -5.65694,-5.1669471 -8.48581,-7.7508181 -2.96203,-2.115661 -5.92421,-4.231502 -8.88671,-6.34765 -3.27385,-2.093389 -6.54784,-4.186957 -9.82216,-6.280833 -4.00885,-1.982025 -8.01782,-3.964233 -12.02712,-5.946748 -3.67477,-1.447475 -7.34965,-2.895156 -11.02487,-4.34313 -4.00886,-1.135653 -8.01782,-2.271525 -12.02713,-3.407685 -4.00886,-0.823833 -8.01782,-1.647899 -12.02713,-2.472243 -2.91748,-0.311558 -5.83512,-0.623366 -8.75308,-0.935445 -2.40521,-0.133371 -4.81058,-0.267004 -7.21627,-0.400905 -3.67477,-0.06655 -7.34965,-0.133368 -11.02487,-0.200451 -3.98659,0.467995 -7.97328,0.935707 -11.96031,1.403165 -4.40977,0.89118 -8.81963,1.782061 -13.229843,2.672697 -2.783849,0.735269 -5.567851,1.470244 -8.352173,2.204971 -3.585673,1.33664 -7.171468,2.672961 -10.757599,4.009043 -2.115662,0.913456 -4.231503,1.826607 -6.347651,2.739515 -3.006577,1.559366 -6.013299,3.118408 -9.020347,4.677216 -2.605664,1.58164 -5.21149,3.162954 -7.817633,4.744032 -2.739302,1.960282 -5.478761,3.920218 -8.218537,5.879931 -2.293845,1.938007 -4.587862,3.875672 -6.882191,5.813113 -2.160207,2.027097 -4.320593,4.0538502 -6.481286,6.0803812 -2.316118,2.517103 -4.632407,5.0338408 -6.949006,7.55036425 C 27.034438,3.4467608 25.05223,5.9412259 23.069715,8.4354768 21.310421,10.95258 19.550932,13.469318 17.791143,15.985841 c -1.915205,3.363473 -3.830598,6.726547 -5.746295,10.089425 -1.336109,2.784377 -2.6724319,5.568378 -4.0090434,8.352171 -1.6256581,4.209844 -3.2515148,8.419255 -4.8776677,12.628486 -0.890651,3.096198 -1.7815322,6.192008 -2.67269647,9.287615 -0.80156049,4.076207 -1.60335113,8.151985 -2.40542493,12.227581 -0.4229206,3.942569 -0.8460899,7.884716 -1.2695317,11.826677 -0.066553,3.831204 -0.1333685,7.661991 -0.200451,11.492589 0.2452661,3.608475 0.4902597,7.216542 0.7349914,10.824415 0.5125402,3.83121 1.0247973,7.66199 1.5368005,11.49259 0.80208964,3.36347 1.60388032,6.72655 2.4054249,10.08943 1.2030022,3.71983 2.4056896,7.43926 3.6081388,11.1585 1.1361816,2.85119 2.2720564,5.70201 3.4076851,8.55262 1.2920953,2.6062 2.5838705,5.21202 3.8754105,7.81764 1.35891,2.42801 2.717503,4.85566 4.075858,7.28309 1.693006,2.58392 3.38568,5.16748 5.078122,7.75082 1.715278,2.22755 3.430225,4.45475 5.144939,6.68173 2.851195,3.25211 5.702014,6.50383 8.552624,9.75534 2.272102,2.13847 4.543846,4.27658 6.815373,6.41447 2.205281,1.84892 4.410213,3.69749 6.61492,5.54584 3.185292,2.31665 6.37019,4.63294 9.554887,6.94901 3.3412,2.00483 6.682001,4.00931 10.022607,6.01357 3.296655,1.60391 6.592911,3.2075 9.888971,4.81085 3.051654,1.18073 6.102919,2.36114 9.153982,3.54132 3.71984,1.13618 7.439266,2.27205 11.158503,3.40769 4.12075,0.84663 8.24107,1.69297 12.36122,2.53906 2.69528,0.35663 5.3902,0.71298 8.0849,1.06907 3.18529,0.223 6.37019,0.44572 9.55488,0.66818 2.58393,-0.022 5.16748,-0.0443 7.75082,-0.0668 1.13618,-0.1111 2.27206,-0.22246 3.40769,-0.33409 z" />
    <path
       style="fill:#ffffff;stroke:none;stroke-width:0.264583px;stroke-linecap:butt;stroke-linejoin:miter;stroke-opacity:1"
       d="m 128.87525,152.27101 c -1.19166,0.17814 -2.34982,0.66813 -3.45235,1.21382 -1.10252,0.54568 -2.1493,1.14703 -3.20728,1.85976 -1.05797,0.71274 -2.12703,1.5368 -3.11819,2.45001 -0.99116,0.9132 -1.90431,1.91544 -2.66159,2.83977 -0.75728,0.92434 -1.35863,1.77068 -1.93773,2.71729 -0.57909,0.94661 -1.13589,1.99339 -1.62589,3.00682 -0.49,1.01342 -0.91317,1.99339 -1.12473,2.8955 -0.21156,0.90211 -0.21156,1.72618 -0.089,2.5837 0.12255,0.85752 0.36754,1.7484 0.73506,2.80636 0.36752,1.05796 0.8575,2.28291 1.38094,3.39655 0.52343,1.11363 1.08023,2.11587 1.69276,3.02904 0.61253,0.91316 1.28069,1.73723 2.12708,2.55015 0.8464,0.81292 1.87091,1.61471 2.97342,2.31627 1.10251,0.70155 2.28292,1.30289 3.73065,1.84854 1.44773,0.54565 3.16267,1.03563 4.55469,1.28059 1.39201,0.24495 2.46107,0.24495 3.70828,-0.0223 1.24721,-0.26731 2.67262,-0.80184 3.98668,-1.38092 1.31407,-0.57909 2.51675,-1.20271 3.63035,-1.98224 1.11359,-0.77953 2.1381,-1.71495 3.04013,-2.65038 0.90202,-0.93544 1.68154,-1.87086 2.36084,-2.91764 0.6793,-1.04677 1.25837,-2.20492 1.73723,-3.16264 0.47887,-0.95772 0.85749,-1.71497 1.14704,-2.41653 0.28954,-0.70156 0.48999,-1.34745 0.63478,-2.19378 0.14478,-0.84633 0.23387,-1.8931 0.0892,-2.91761 -0.14471,-1.0245 -0.52333,-2.02675 -1.01331,-3.14038 -0.48999,-1.11364 -1.09133,-2.3386 -1.68152,-3.32974 -0.59019,-0.99114 -1.16926,-1.74839 -1.80402,-2.51681 -0.63477,-0.76842 -1.3252,-1.54794 -2.10472,-2.29409 -0.77953,-0.74616 -1.64813,-1.45886 -2.55017,-2.08253 -0.90203,-0.62366 -1.83745,-1.15818 -2.71722,-1.62592 -0.87977,-0.46774 -1.70384,-0.86864 -2.49452,-1.20275 -0.79068,-0.33411 -1.54793,-0.60137 -2.53908,-0.80187 -0.99115,-0.20049 -2.2161,-0.33412 -3.40776,-0.15599 z"
       id="path316"
       inkscape:path-effect="#path-effect318"
       inkscape:original-d="m 128.84163,151.95921 c -1.1579,0.49026 -2.31607,0.98025 -3.4745,1.46998 -1.04657,0.60164 -2.09335,1.20298 -3.14042,1.80407 -1.06884,0.82436 -2.13789,1.64843 -3.20723,2.47224 -0.91293,1.00255 -1.82608,2.00479 -2.73952,3.00679 -0.6011,0.84663 -1.20245,1.69297 -1.80407,2.53906 -0.55656,1.04709 -1.11336,2.09387 -1.67043,3.14041 -0.42292,0.98028 -0.84609,1.96025 -1.26953,2.93997 2.6e-4,0.82436 2.6e-4,1.64843 0,2.47224 0.24526,0.89118 0.49026,1.78206 0.73499,2.6727 0.49027,1.22527 0.98025,2.45023 1.46998,3.67495 0.55709,1.00255 1.11389,2.00479 1.67044,3.00679 0.66845,0.82436 1.33661,1.64842 2.00452,2.47224 1.02482,0.80209 2.04933,1.60388 3.0736,2.40542 1.18073,0.60164 2.36114,1.20298 3.54132,1.80407 1.71528,0.49027 3.43022,0.98026 5.14494,1.46999 1.06936,2.6e-4 2.13842,2.6e-4 3.20723,0 1.42573,-0.53429 2.85114,-1.06882 4.27631,-1.60362 1.203,-0.62338 2.40569,-1.24699 3.60814,-1.87089 1.02482,-0.9352 2.04933,-1.87062 3.0736,-2.80633 0.77982,-0.9352 1.55934,-1.87062 2.33861,-2.80633 0.57936,-1.15792 1.15843,-2.31607 1.73725,-3.4745 0.3789,-0.75701 0.75753,-1.51426 1.1359,-2.27179 0.20072,-0.64565 0.40117,-1.29154 0.60135,-1.9377 0.0894,-1.04657 0.17845,-2.09335 0.26727,-3.14042 -0.37837,-1.00202 -0.757,-2.00426 -1.13589,-3.00678 -0.60111,-1.22475 -1.20245,-2.44971 -1.80407,-3.67496 -0.57883,-0.75701 -1.1579,-1.51426 -1.73725,-2.27179 -0.6902,-0.77929 -1.38063,-1.55881 -2.07134,-2.33861 -0.86838,-0.71247 -1.73699,-1.42517 -2.60588,-2.13816 -0.9352,-0.53428 -1.87062,-1.06881 -2.80633,-1.60361 -0.82383,-0.40065 -1.6479,-0.80155 -2.47224,-1.20272 -0.75702,-0.26701 -1.51427,-0.53427 -2.27179,-0.8018 -1.22475,-0.13338 -2.44971,-0.26701 -3.67496,-0.40091 z" />
    <path
       style="fill:#ffffff;stroke:none;stroke-width:0.264583px;stroke-linecap:butt;stroke-linejoin:miter;stroke-opacity:1"
       d="m 117.24888,131.05667 c 0.1671,0.41219 0.50119,1.23628 0.9133,1.90443 0.41211,0.66816 0.9021,1.18041 1.45894,1.63697 0.55684,0.45655 1.18046,0.85745 2.0491,1.28059 0.86864,0.42315 1.98225,0.86859 3.14042,1.25834 1.15818,0.38975 2.36087,0.72383 3.5413,0.90197 1.18042,0.17813 2.33858,0.2004 3.55238,0.011 1.21381,-0.18936 2.48332,-0.59026 3.76396,-1.13594 1.28065,-0.54568 2.57242,-1.23611 3.51894,-1.99333 0.94653,-0.75722 1.54787,-1.58129 1.97104,-2.28284 0.42317,-0.70155 0.66816,-1.28062 0.73501,-2.19372 0.0669,-0.91311 -0.0445,-2.16034 -0.14473,-3.4633 -0.10023,-1.30295 -0.18932,-2.66154 -0.15593,-4.08702 0.0334,-1.42547 0.1893,-2.9177 0.45656,-4.39885 0.26726,-1.48116 0.64588,-2.95112 1.11361,-4.30978 0.46772,-1.35866 1.02452,-2.6059 1.67043,-3.92 0.64591,-1.3141 1.38089,-2.69497 2.24953,-4.13157 0.86864,-1.43661 1.87088,-2.92884 3.2184,-4.55477 1.34752,-1.625937 3.04019,-3.385425 4.64382,-5.100416 1.60362,-1.714991 3.11812,-3.385393 4.92221,-5.334258 1.8041,-1.948865 3.89767,-4.176065 5.54583,-6.046955 1.64817,-1.870889 2.85086,-3.385387 4.40995,-5.423337 1.55909,-2.037951 3.47448,-4.599232 5.06696,-6.960116 1.59249,-2.360884 2.86199,-4.521272 3.97563,-6.425582 1.11363,-1.904309 2.07133,-3.55244 3.01791,-5.512414 0.94659,-1.959974 1.88201,-4.231718 2.68383,-6.470105 0.80182,-2.238386 1.46998,-4.443315 1.9043,-6.024654 0.43432,-1.581339 0.63476,-2.539035 0.81295,-3.596976 0.17819,-1.057941 0.33409,-2.216087 0.46774,-3.574713 0.13364,-1.358625 0.245,-2.917666 0.17821,-4.588093 -0.0668,-1.670428 -0.31178,-3.452188 -0.70154,-5.367633 -0.38975,-1.915444 -0.92428,-3.96447 -1.43652,-5.545822 -0.51224,-1.581351 -1.00223,-2.694955 -1.63698,-3.9645 -0.63476,-1.269545 -1.41428,-2.694955 -2.37198,-4.142689 -0.9577,-1.447733 -2.09358,-2.917688 -3.3297,-4.343152 -1.23611,-1.425464 -2.57243,-2.80633 -3.95333,-4.1204283 -1.38089,-1.3140986 -2.8063,-2.5613319 -4.32083,-3.6972622 -1.51454,-1.1359303 -3.11812,-2.1604403 -4.9222,-3.1738661 -1.80409,-1.0134258 -3.80857,-2.01566623 -5.57924,-2.7952297 -1.77068,-0.7795635 -3.30746,-1.3363677 -4.92222,-1.8597864 -1.61477,-0.5234187 -3.30745,-1.013405 -5.11154,-1.4477364 -1.80409,-0.4343313 -3.71949,-0.8129565 -5.63495,-1.0913804 -1.91546,-0.2784239 -3.83085,-0.4566 -5.98018,-0.5122976 -2.14933,-0.055697 -4.53244,0.011119 -6.74858,0.1781539 -2.21615,0.1670347 -4.26518,0.4342987 -6.12495,0.7238419 -1.85978,0.2895432 -3.53018,0.6013581 -5.6461,1.1136301 -2.11593,0.512272 -4.67721,1.2249759 -7.07154,1.9933824 -2.39433,0.76840648 -4.62153,1.59247036 -7.12723,2.717245 -2.5057,1.1247746 -5.2897,2.5501831 -7.884487,4.0535954 -2.594785,1.5034122 -5.000162,3.0847249 -7.060394,4.532454 -2.060233,1.4477294 -3.775178,2.7617784 -5.367684,4.0647374 -1.592506,1.302958 -3.062459,2.594735 -4.387686,3.786326 -1.325227,1.191591 -2.505654,2.282929 -3.686094,3.374279 0,0 4.744034,24.187893 4.744034,24.187893 4.721762,0.489994 9.443812,0.980018 11.793544,1.225 2.349731,0.244982 2.327194,0.244982 2.304921,0.244982 0,0 0.935444,-1.135895 0.935444,-1.135895 0.734991,-0.846354 1.469965,-1.692688 2.405423,-2.750646 0.935459,-1.057958 2.071329,-2.327461 3.340889,-3.608154 1.26955,-1.280693 2.67269,-2.572467 4.20952,-3.886565 1.53683,-1.314098 3.20723,-2.650417 4.91111,-3.85315 1.70388,-1.202733 3.4411,-2.271792 5.06703,-3.140429 1.62593,-0.868637 3.14042,-1.536794 4.77748,-2.149291 1.63707,-0.612498 3.39656,-1.169298 4.82761,-1.514511 1.43104,-0.345212 2.53351,-0.478844 3.66387,-0.551217 1.13036,-0.07237 2.2885,-0.08351 3.31306,-0.0111 1.02456,0.07241 1.91544,0.228319 2.75624,0.400943 0.8408,0.172624 1.63146,0.361936 2.47225,0.668226 0.8408,0.306289 1.73168,0.729458 2.5502,1.158223 0.81852,0.428765 1.56463,0.863068 2.15485,1.236152 0.59021,0.373084 1.02452,0.68489 1.55348,1.158213 0.52896,0.473323 1.15257,1.108072 1.74834,1.804109 0.59578,0.696037 1.16372,1.453288 1.69268,2.204996 0.52897,0.751708 1.01895,1.497823 1.45324,2.288509 0.43429,0.790686 0.81291,1.625885 1.19153,2.617019 0.37862,0.991135 0.75724,2.138144 0.9855,3.040172 0.22826,0.902028 0.30621,1.559054 0.38973,2.344163 0.0835,0.785109 0.17261,1.698267 0.206,2.733934 0.0334,1.035667 0.0111,2.193811 -0.0724,3.340839 -0.0835,1.147027 -0.2283,2.282899 -0.40092,3.33527 -0.17262,1.052371 -0.37307,2.021202 -0.62364,2.962202 -0.25058,0.941 -0.55125,1.854152 -0.87421,2.761755 -0.32295,0.907603 -0.66817,1.809622 -1.11919,2.828581 -0.45102,1.018959 -1.00782,2.154831 -1.74839,3.491179 -0.74056,1.336347 -1.66485,2.873117 -2.62814,4.29855 -0.96328,1.425432 -1.96552,2.739481 -3.00677,4.047993 -1.04124,1.308511 -2.12144,2.611427 -3.27961,3.875387 -1.15816,1.26396 -2.39426,2.488918 -3.48562,3.602556 -1.09136,1.113638 -2.03793,2.115882 -2.93998,3.179418 -0.90206,1.063536 -1.75953,2.188271 -2.63374,3.407712 -0.8742,1.219441 -1.76508,2.53349 -2.51679,3.719521 -0.7517,1.186032 -1.36418,2.243952 -1.97669,3.391008 -0.6125,1.147056 -1.22498,2.383153 -1.79293,3.663849 -0.56796,1.280696 -1.09135,2.605877 -1.55908,3.847587 -0.46772,1.24171 -0.87975,2.39985 -1.25282,3.6193 -0.37306,1.21945 -0.70714,2.50009 -0.99111,3.73623 -0.28398,1.23615 -0.51783,2.4277 -0.73499,3.56918 -0.21716,1.14147 -0.41761,2.2328 -0.58465,3.25179 -0.16704,1.01898 -0.30067,1.96554 -0.4176,2.96782 -0.11692,1.00228 -0.21715,2.06019 -0.30067,3.09588 -0.0835,1.03568 -0.15033,2.04906 -0.21158,3.09031 -0.0613,1.04124 -0.11694,2.11031 -0.13921,3.09031 -0.0223,0.98 -0.0111,1.87089 -0.006,2.31621 0.006,0.44531 0.006,0.44531 0.17268,0.85751 z"
       id="path320"
       inkscape:path-effect="#path-effect322"
       inkscape:original-d="m 117.08177,130.64447 c 0.33435,0.82434 0.66844,1.64842 1.00226,2.47224 0.49027,0.51254 0.98025,1.0248 1.46998,1.5368 0.62391,0.40118 1.24753,0.80207 1.87089,1.20271 1.11391,0.44572 2.22751,0.89117 3.34087,1.33635 1.203,0.33436 2.40569,0.66844 3.60814,1.00226 1.15845,0.0225 2.3166,0.0448 3.4745,0.0668 1.26982,-0.40065 2.53933,-0.80155 3.80859,-1.20272 1.2921,-0.69019 2.58387,-1.38062 3.87541,-2.07133 0.60163,-0.82384 1.20298,-1.6479 1.80407,-2.47225 0.24527,-0.57883 0.49026,-1.1579 0.73499,-1.73725 -0.1111,-1.24702 -0.22246,-2.49425 -0.33409,-3.74177 -0.0888,-1.35839 -0.17791,-2.71698 -0.26726,-4.07586 0.15617,-1.49202 0.31207,-2.98425 0.46772,-4.47677 0.3789,-1.46974 0.75753,-2.9397 1.13589,-4.40994 0.55709,-1.24702 1.11389,-2.49426 1.67044,-3.74178 0.73527,-1.38065 1.47024,-2.76152 2.20497,-4.14268 1.00254,-1.49202 2.00479,-2.98424 3.00678,-4.47676 1.69301,-1.759295 3.38568,-3.518785 5.07812,-5.278574 1.51482,-1.670203 3.02932,-3.340602 4.54358,-5.011303 2.09392,-2.227025 4.18749,-4.454226 6.28084,-6.681738 1.203,-1.514293 2.40569,-3.02879 3.60814,-4.543582 1.91573,-2.561119 3.83112,-5.122401 5.74629,-7.683998 1.26982,-2.160208 2.53933,-4.320593 3.80859,-6.481286 0.958,-1.647931 1.9157,-3.29606 2.87315,-4.944487 0.93573,-2.271571 1.87115,-4.543317 2.80633,-6.815372 0.66845,-2.204754 1.33661,-4.409683 2.00452,-6.614921 0.20072,-0.957471 0.40117,-1.915167 0.60136,-2.873147 0.15617,-1.157927 0.31208,-2.316072 0.46772,-3.474504 0.11163,-1.558839 0.22299,-3.11788 0.33409,-4.677217 -0.24474,-1.781568 -0.48973,-3.563329 -0.73499,-5.345391 -0.53429,-2.048843 -1.06882,-4.097869 -1.60362,-6.147199 -0.48974,-1.11338 -0.97973,-2.226982 -1.46998,-3.340867 -0.77929,-1.425202 -1.55881,-2.850613 -2.33861,-4.276315 -1.13565,-1.469747 -2.27153,-2.939698 -3.40769,-4.409945 -1.33611,-1.380657 -2.67243,-2.761523 -4.00904,-4.1426795 -1.4252,-1.2470183 -2.85061,-2.4942509 -4.27631,-3.7417718 -1.60339,-1.0242894 -3.20697,-2.0488037 -4.81086,-3.0736011 -2.00429,-1.0020141 -4.00877,-2.00425576 -6.01356,-3.00678052 -1.53656,-0.55655898 -3.07334,-1.11335868 -4.6104,-1.67043628 -1.69247,-0.4897384 -3.38515,-0.979723 -5.07812,-1.4699826 -1.9152,-0.3783727 -3.8306,-0.7569968 -5.74629,-1.1358933 -1.91521,-0.1779191 -3.8306,-0.3560948 -5.7463,-0.5345404 -2.38293,0.067083 -4.76604,0.1339004 -7.14946,0.2004537 -2.04884,0.2675387 -4.09787,0.5348023 -6.1472,0.8018065 -1.6702,0.312092 -3.3406,0.6239068 -5.0113,0.9354634 -2.56112,0.7129976 -5.1224,1.4257021 -7.684,2.1381562 -2.22703,0.82436212 -4.45423,1.64842669 -6.68174,2.47224315 -2.78385,1.42573055 -5.56785,2.85113955 -8.352171,4.27631245 -2.40521,1.5816409 -4.810587,3.162954 -7.216278,4.7440341 -1.714749,1.314366 -3.429694,2.628415 -5.144938,3.942226 -1.469747,1.292093 -2.9397,2.58387 -4.409947,3.875408 -1.1802,1.091637 -3.541321,3.274051 -3.541321,3.274051 0,0 4.744034,24.187893 4.744034,24.187893 0,0 9.443788,0.980252 14.165285,1.469982 -0.02201,2.65e-4 -0.06682,0 -0.06682,0 0,0 0.935444,-1.135895 0.935444,-1.135895 0,0 1.470247,-1.692443 2.204973,-2.539061 1.136189,-1.269291 2.272059,-2.538796 3.407689,-3.808591 1.40346,-1.291564 2.80659,-2.583341 4.20949,-3.875408 1.67074,-1.33611 3.34114,-2.672431 5.01131,-4.009043 1.73755,-1.068835 3.47477,-2.137891 5.21175,-3.207234 1.51483,-0.667923 3.02932,-1.336083 4.54359,-2.004522 1.75982,-0.556558 3.51931,-1.113358 5.27857,-1.670434 1.10277,-0.133373 2.20524,-0.267005 3.30746,-0.400904 1.15846,-0.01087 2.3166,-0.02201 3.4745,-0.03341 0.89118,0.156175 1.78206,0.312079 2.6727,0.467722 0.79095,0.189584 1.58161,0.378896 2.37202,0.567947 0.89118,0.42345 1.78206,0.846618 2.67269,1.269531 0.74641,0.434586 1.49252,0.86889 2.23838,1.302938 0.43459,0.312086 0.86889,0.623894 1.30294,0.935444 0.62391,0.635042 1.24752,1.269795 1.87089,1.904295 0.56822,0.757544 1.13616,1.514792 1.70384,2.271791 0.49027,0.746407 0.98026,1.49252 1.46998,2.238382 0.37891,0.835499 0.75753,1.6707 1.1359,2.505652 0.3789,1.14732 0.75753,2.294328 1.1359,3.441095 0.0782,0.657316 0.15617,1.31434 0.23386,1.971113 0.0893,0.913454 0.17844,1.826607 0.26727,2.739513 -0.022,1.158456 -0.0443,2.3166 -0.0668,3.474504 -0.14451,1.136183 -0.28928,2.272055 -0.43431,3.407686 -0.2002,0.969136 -0.40064,1.937969 -0.60136,2.906556 -0.30042,0.913454 -0.60109,1.826607 -0.90204,2.739513 -0.34496,0.902317 -0.69018,1.804334 -1.03566,2.706104 -0.55656,1.136183 -1.11336,2.272056 -1.67044,3.407686 -0.92406,1.537096 -1.84835,3.073865 -2.77292,4.6104 -1.00202,1.314366 -2.00426,2.628415 -3.00678,3.942225 -1.07997,1.30323 -2.16017,2.606143 -3.24065,3.908817 -1.23588,1.225275 -2.47197,2.450235 -3.70836,3.674956 -0.94633,1.002546 -1.8929,2.004786 -2.83974,3.006782 -0.85724,1.125047 -1.71471,2.249783 -2.57247,3.374278 -0.89065,1.314366 -1.78153,2.628415 -2.67269,3.942226 -0.61224,1.058227 -1.22472,2.116148 -1.83748,3.173825 -0.61224,1.236411 -1.22472,2.472508 -1.83748,3.708365 -0.52315,1.325503 -1.04654,2.650688 -1.57021,3.975638 -0.41178,1.15845 -0.82381,2.3166 -1.23612,3.4745 -0.33383,1.28096 -0.66791,2.5616 -1.00226,3.842 -0.2336,1.19187 -0.46746,2.38342 -0.70158,3.57473 -0.20019,1.09164 -0.40064,2.18297 -0.60136,3.27405 -0.13337,0.94687 -0.267,1.89343 -0.4009,2.83974 -0.1,1.05823 -0.20019,2.11615 -0.30068,3.17383 -0.0666,1.01368 -0.13337,2.02706 -0.20045,3.04019 -0.0554,1.06936 -0.11111,2.13842 -0.16707,3.20723 0.0114,0.89118 0.0225,1.78207 0.0334,2.6727 z" />
  </g>
</svg>
