<?xml version="1.0" encoding="UTF-8" standalone="no"?>
<svg
   xmlns:dc="http://purl.org/dc/elements/1.1/"
   xmlns:cc="http://creativecommons.org/ns#"
   xmlns:rdf="http://www.w3.org/1999/02/22-rdf-syntax-ns#"
   xmlns:svg="http://www.w3.org/2000/svg"
   xmlns="http://www.w3.org/2000/svg"
   xmlns:sodipodi="http://sodipodi.sourceforge.net/DTD/sodipodi-0.dtd"
   xmlns:inkscape="http://www.inkscape.org/namespaces/inkscape"
   version="1.1"
   id="Layer_1"
   x="0px"
   y="0px"
   viewBox="0 0 374.078 458.62201"
   xml:space="preserve"
   sodipodi:docname="PowerIcon.svg"
   width="374.078"
   height="458.62201"
   inkscape:version="1.0.1 (3bc2e813f5, 2020-09-07)"><metadata
   id="metadata43"><rdf:RDF><cc:Work
       rdf:about=""><dc:format>image/svg+xml</dc:format><dc:type
         rdf:resource="http://purl.org/dc/dcmitype/StillImage" /><dc:title></dc:title></cc:Work></rdf:RDF></metadata><defs
   id="defs41" /><sodipodi:namedview
   pagecolor="#ffffff"
   bordercolor="#666666"
   borderopacity="1"
   objecttolerance="10"
   gridtolerance="10"
   guidetolerance="10"
   inkscape:pageopacity="0"
   inkscape:pageshadow="2"
   inkscape:window-width="1920"
   inkscape:window-height="1017"
   id="namedview39"
   showgrid="false"
   inkscape:zoom="1.6026305"
   inkscape:cx="187.0395"
   inkscape:cy="129.47464"
   inkscape:window-x="-8"
   inkscape:window-y="-8"
   inkscape:window-maximized="1"
   inkscape:current-layer="Layer_1" />
<g
   id="g6"
   transform="translate(-42.271)"
   style="fill:#ffffff">
	<rect
   x="214.311"
   width="30"
   height="199.088"
   id="rect2"
   y="0"
   style="fill:#ffffff" />
	<path
   d="M 305.42,100.692 293.2,128.09 c 56.585,25.237 93.148,81.561 93.148,143.492 0,86.591 -70.447,157.039 -157.039,157.039 -86.592,0 -157.037,-70.447 -157.037,-157.038 0,-61.931 36.563,-118.255 93.148,-143.492 L 153.2,100.693 c -67.387,30.054 -110.929,97.132 -110.929,170.89 0,103.133 83.905,187.039 187.039,187.039 103.134,0 187.039,-83.905 187.039,-187.039 0,-73.758 -43.542,-140.836 -110.929,-170.891 z"
   id="path4"
   style="fill:#ffffff" />
</g>
<g
   id="g8"
   transform="translate(-42.271)">
</g>
<g
   id="g10"
   transform="translate(-42.271)">
</g>
<g
   id="g12"
   transform="translate(-42.271)">
</g>
<g
   id="g14"
   transform="translate(-42.271)">
</g>
<g
   id="g16"
   transform="translate(-42.271)">
</g>
<g
   id="g18"
   transform="translate(-42.271)">
</g>
<g
   id="g20"
   transform="translate(-42.271)">
</g>
<g
   id="g22"
   transform="translate(-42.271)">
</g>
<g
   id="g24"
   transform="translate(-42.271)">
</g>
<g
   id="g26"
   transform="translate(-42.271)">
</g>
<g
   id="g28"
   transform="translate(-42.271)">
</g>
<g
   id="g30"
   transform="translate(-42.271)">
</g>
<g
   id="g32"
   transform="translate(-42.271)">
</g>
<g
   id="g34"
   transform="translate(-42.271)">
</g>
<g
   id="g36"
   transform="translate(-42.271)">
</g>
</svg>
