<?xml version="1.0" encoding="UTF-8" standalone="no"?>
<svg
   xmlns:dc="http://purl.org/dc/elements/1.1/"
   xmlns:cc="http://creativecommons.org/ns#"
   xmlns:rdf="http://www.w3.org/1999/02/22-rdf-syntax-ns#"
   xmlns:svg="http://www.w3.org/2000/svg"
   xmlns="http://www.w3.org/2000/svg"
   xmlns:sodipodi="http://sodipodi.sourceforge.net/DTD/sodipodi-0.dtd"
   xmlns:inkscape="http://www.inkscape.org/namespaces/inkscape"
   width="59.795834mm"
   height="59.795834mm"
   viewBox="0 0 59.795834 59.795834"
   version="1.1"
   id="svg8"
   inkscape:version="1.0.1 (3bc2e813f5, 2020-09-07)"
   sodipodi:docname="Win10UserIcon.svg">
  <defs
     id="defs2">
    <inkscape:path-effect
       effect="bspline"
       id="path-effect50"
       is_visible="true"
       lpeversion="1"
       weight="33.333333"
       steps="2"
       helper_size="0"
       apply_no_weight="true"
       apply_with_weight="true"
       only_selected="false" />
    <inkscape:path-effect
       effect="bspline"
       id="path-effect46"
       is_visible="true"
       lpeversion="1"
       weight="33.333333"
       steps="2"
       helper_size="0"
       apply_no_weight="true"
       apply_with_weight="true"
       only_selected="false" />
    <inkscape:path-effect
       effect="bspline"
       id="path-effect36"
       is_visible="true"
       lpeversion="1"
       weight="33.333333"
       steps="2"
       helper_size="0"
       apply_no_weight="true"
       apply_with_weight="true"
       only_selected="false" />
  </defs>
  <sodipodi:namedview
     id="base"
     pagecolor="#ffffff"
     bordercolor="#666666"
     borderopacity="1.0"
     inkscape:pageopacity="0.0"
     inkscape:pageshadow="2"
     inkscape:zoom="2.8"
     inkscape:cx="145.68205"
     inkscape:cy="124.6526"
     inkscape:document-units="mm"
     inkscape:current-layer="layer1"
     inkscape:document-rotation="0"
     showgrid="false"
     inkscape:snap-global="false"
     fit-margin-top="0"
     fit-margin-left="0"
     fit-margin-right="0"
     fit-margin-bottom="0"
     inkscape:pagecheckerboard="true"
     inkscape:window-width="1920"
     inkscape:window-height="1017"
     inkscape:window-x="-8"
     inkscape:window-y="-8"
     inkscape:window-maximized="1" />
  <metadata
     id="metadata5">
    <rdf:RDF>
      <cc:Work
         rdf:about="">
        <dc:format>image/svg+xml</dc:format>
        <dc:type
           rdf:resource="http://purl.org/dc/dcmitype/StillImage" />
        <dc:title></dc:title>
      </cc:Work>
    </rdf:RDF>
  </metadata>
  <g
     inkscape:label="Layer 1"
     inkscape:groupmode="layer"
     id="layer1"
     transform="translate(-109.19732,-58.548512)">
    <path
       style="fill:#666666;fill-opacity:1;stroke-width:0.357143;stroke:none"
       d="M 105.73799,208.64853 C 87.346816,207.55714 70.662134,201.18063 54.566634,189.09198 46.551309,183.072 39.716642,175.69377 33.644188,166.50555 25.29548,153.87314 20.679517,142.4124 18.612495,129.18412 17.847373,124.28759 17.520498,109.075 18.052295,103.11269 19.413625,87.849979 26.503395,70.724915 37.611907,55.867211 41.44859,50.735625 49.902161,42.189921 54.592234,38.701819 64.07777,31.647238 75.457702,25.794182 87.37488,21.840676 c 7.331283,-2.432141 9.501215,-2.812523 18.6317,-3.266077 13.55363,-0.673273 20.22346,0.02111 31.9074,3.321813 10.60594,2.996171 24.53787,9.857212 33.12599,16.313522 10.79188,8.113037 23.0122,23.886217 28.67232,37.008331 3.43287,7.958586 6.27044,17.587689 7.53602,25.573005 0.82117,5.18125 0.9294,20.98488 0.18343,26.78571 -1.52695,11.87398 -5.01503,22.34185 -10.80652,32.43075 -9.16943,15.97335 -21.90892,28.18909 -39.51581,37.89125 -11.12357,6.12957 -20.42725,9.33147 -30.08829,10.35502 -5.07224,0.53739 -15.59025,0.73236 -21.28313,0.39453 z M 77.630041,153.51568 c 0.05522,-0.0552 0.267779,-1.73142 0.472346,-3.72488 0.641061,-6.24698 2.4565,-11.85411 5.153693,-15.91761 3.592533,-5.41237 12.579225,-12.00822 19.45887,-14.28196 3.89486,-1.28727 9.20266,-1.80677 13.38262,-1.30982 8.00289,0.95144 9.86491,1.50813 14.80587,4.42654 7.2874,4.30434 12.68312,11.3409 15.77658,20.57427 0.74667,2.22865 1.14325,4.27786 1.32787,6.86124 l 0.26323,3.68352 3.75,-0.12994 c 2.0625,-0.0715 3.81055,-0.18559 3.88455,-0.2536 0.33369,-0.30667 -0.71988,-9.89946 -1.36147,-12.39638 -1.42208,-5.53435 -5.63426,-12.98837 -9.79302,-17.33007 -3.02749,-3.16066 -8.77652,-7.42484 -12.1604,-9.01962 l -2.82319,-1.33053 1.07132,-0.554 c 1.62167,-0.8386 6.17467,-5.8873 7.81481,-8.66564 1.91462,-3.24329 3.91535,-7.969592 4.59551,-10.855935 0.72196,-3.063689 0.73417,-11.170654 0.0214,-14.19375 -1.20727,-5.120307 -3.97998,-9.597554 -8.79477,-14.201393 -4.98253,-4.764236 -8.97115,-6.935582 -15.02895,-8.181528 -3.53114,-0.726272 -10.407,-0.734368 -13.4972,-0.01589 -3.2051,0.745189 -9.783837,4.050468 -12.04363,6.05095 -2.313457,2.047982 -6.123214,6.746439 -7.97131,9.830768 -2.666165,4.449592 -3.91365,9.500496 -3.91365,15.8458 0,5.010757 0.533182,7.168296 3.011578,12.186468 2.406225,4.87204 4.523957,7.51608 8.367661,10.4472 2.695925,2.05585 2.904725,2.2987 2.146793,2.49691 -1.223947,0.32007 -4.350164,2.01645 -7.246918,3.93241 -3.39175,2.24335 -8.663407,7.51886 -10.744332,10.75217 -4.505618,7.00077 -7.67764,16.65041 -7.67764,23.35622 v 2.51315 l 3.82569,-0.24733 c 2.104128,-0.13604 3.870868,-0.29252 3.926089,-0.34774 z"
       id="path52"
       transform="matrix(0.26458333,0,0,0.26458333,109.19732,58.548512)" />
    <path
       style="fill:#ffffff;fill-opacity:1;stroke-width:0.357143"
       d="m 107.11068,109.5753 c -0.83467,-0.27182 -2.91012,-1.18406 -4.6121,-2.02718 -3.621677,-1.79409 -7.330091,-5.28085 -9.477737,-8.911238 -3.46618,-5.859245 -3.742476,-15.68506 -0.613975,-21.834572 2.018917,-3.968468 6.788509,-8.700678 10.574722,-10.491843 2.68079,-1.268218 7.37847,-2.300018 10.4681,-2.29922 2.10233,5.43e-4 3.41667,0.255162 6.10952,1.183558 5.92347,2.042199 9.31607,4.607882 12.49705,9.45101 3.10027,4.720246 4.26053,9.403291 3.52763,14.238248 -0.98942,6.527311 -2.88179,10.537641 -6.79836,14.407207 -2.96063,2.92509 -5.48298,4.59012 -8.75293,5.7779 -2.70603,0.98293 -10.51829,1.28893 -12.92192,0.50613 z"
       id="path54"
       transform="matrix(0.26458333,0,0,0.26458333,109.19732,58.548512)" />
    <path
       style="fill:#666666;fill-opacity:1;stroke-width:0.357143;stroke:none"
       d="m 107.11068,109.5753 c -0.83467,-0.27182 -2.91297,-1.18547 -4.61843,-2.03031 -3.644191,-1.80525 -7.346416,-5.28216 -9.471244,-8.894851 -3.466614,-5.894027 -3.742233,-15.699114 -0.614138,-21.847829 1.854694,-3.645664 5.934029,-7.875665 9.754142,-10.114398 2.26084,-1.324942 7.96107,-2.683021 11.24519,-2.679167 2.14712,0.0025 3.44674,0.253036 6.15301,1.18606 5.92347,2.042199 9.31607,4.607882 12.49705,9.45101 3.10027,4.720246 4.26053,9.403291 3.52763,14.238248 -0.98942,6.527311 -2.88179,10.537641 -6.79836,14.407207 -2.96063,2.92509 -5.48298,4.59012 -8.75293,5.7779 -2.70603,0.98293 -10.51829,1.28893 -12.92192,0.50613 z"
       id="path56"
       transform="matrix(0.26458333,0,0,0.26458333,109.19732,58.548512)" />
    <path
       style="fill:#ffffff;fill-opacity:1;stroke:none;stroke-width:0.178571"
       d="m 69.917795,152.4366 c 0,-5.75389 1.943881,-13.07518 5.207922,-19.61475 2.1585,-4.32459 3.838217,-6.64664 7.381364,-10.20404 2.636087,-2.64668 4.928236,-4.50203 7.5,-6.07076 2.088629,-1.27402 5.345284,-2.9427 5.743098,-2.9427 0.761229,0 -0.06602,-0.91115 -2.71598,-2.99145 -3.273902,-2.57011 -5.576979,-5.47552 -7.758227,-9.78726 -2.247448,-4.4426 -2.916791,-6.748382 -3.135364,-10.800841 -0.289641,-5.370108 0.742347,-11.04159 2.776676,-15.259733 2.194332,-4.549908 7.43342,-10.949446 10.756802,-13.139415 3.123706,-2.058392 8.138114,-4.350286 10.824644,-4.947532 1.95364,-0.434316 9.93581,-0.432389 12.25835,0.003 6.1696,1.156457 10.33458,3.337358 15.34254,8.033769 4.91217,4.606593 7.9992,9.55645 9.12119,14.625252 0.39495,1.784266 0.56879,8.689039 0.28662,11.383964 -0.33737,3.222014 -1.33273,6.205296 -3.61714,10.841156 -0.8144,1.65271 -1.74032,3.18269 -2.70171,4.46429 -1.88893,2.51808 -5.2937,6.03246 -6.51186,6.7215 -0.51562,0.29166 -0.9375,0.56004 -0.9375,0.5964 0,0.0364 1.10491,0.62771 2.45536,1.3141 5.09298,2.58863 10.59801,6.83101 13.8033,10.63734 3.82621,4.54369 7.78083,12.2049 8.65299,16.76324 0.41844,2.18699 0.97995,6.86244 1.09976,9.15719 l 0.11321,2.16851 -1.85695,0.10282 c -1.02132,0.0566 -2.71031,0.14732 -3.7533,0.2017 l -1.89634,0.0989 -0.12163,-1.83448 c -0.2999,-4.52339 -0.83581,-7.17554 -2.12275,-10.50532 -3.25432,-8.42007 -8.23048,-14.63279 -14.98593,-18.70989 -4.51642,-2.72578 -6.93687,-3.51464 -13.26272,-4.32251 -5.41554,-0.69161 -10.83154,-0.30444 -15.11292,1.08038 -5.478707,1.77208 -12.943228,6.72975 -17.338657,11.51571 -4.098785,4.46295 -6.384821,10.34965 -7.451,19.18684 -0.206725,1.71348 -0.414691,3.15424 -0.462145,3.20169 -0.0988,0.0988 -5.455994,0.53558 -6.733489,0.54899 l -0.848214,0.009 z m 48.383065,-42.83768 c 3.726,-0.77265 7.44454,-3.03666 10.90809,-6.64134 1.96504,-2.04512 3.00226,-3.51651 4.09313,-5.806472 1.58598,-3.329311 2.51077,-7.434799 2.50547,-11.122629 -0.006,-4.156736 -1.13075,-7.575298 -3.822,-11.61637 -2.48824,-3.736239 -4.96035,-5.933354 -8.7431,-7.770513 -2.13154,-1.03522 -5.18577,-2.115305 -7.0388,-2.489176 -3.1646,-0.638493 -9.6799,0.394286 -13.33943,2.11451 -3.678702,1.729239 -8.614328,6.635279 -10.488519,10.425649 -0.851886,1.722855 -1.352768,3.245446 -1.745049,5.30463 -1.288884,6.765691 0.118283,14.043806 3.607904,18.660711 2.073214,2.74295 5.413275,5.5745 8.270954,7.01173 1.77302,0.89171 4.49727,2.01347 5.30815,2.18572 1.20407,0.25577 8.92377,0.0669 10.4832,-0.25645 z"
       id="path58"
       transform="matrix(0.26458333,0,0,0.26458333,109.19732,58.548512)" />
  </g>
</svg>
