<?xml version="1.0" encoding="UTF-8" standalone="no"?>
<svg
   xmlns:dc="http://purl.org/dc/elements/1.1/"
   xmlns:cc="http://creativecommons.org/ns#"
   xmlns:rdf="http://www.w3.org/1999/02/22-rdf-syntax-ns#"
   xmlns:svg="http://www.w3.org/2000/svg"
   xmlns="http://www.w3.org/2000/svg"
   xmlns:sodipodi="http://sodipodi.sourceforge.net/DTD/sodipodi-0.dtd"
   xmlns:inkscape="http://www.inkscape.org/namespaces/inkscape"
   width="126.99999mm"
   height="97.366661mm"
   viewBox="0 0 126.99999 97.366661"
   version="1.1"
   id="svg8"
   inkscape:version="1.0.1 (3bc2e813f5, 2020-09-07)"
   sodipodi:docname="Windows95Logo.svg">
  <defs
     id="defs2">
    <inkscape:path-effect
       effect="bspline"
       id="path-effect50"
       is_visible="true"
       lpeversion="1"
       weight="33.333333"
       steps="2"
       helper_size="0"
       apply_no_weight="true"
       apply_with_weight="true"
       only_selected="false" />
    <inkscape:path-effect
       effect="bspline"
       id="path-effect46"
       is_visible="true"
       lpeversion="1"
       weight="33.333333"
       steps="2"
       helper_size="0"
       apply_no_weight="true"
       apply_with_weight="true"
       only_selected="false" />
    <inkscape:path-effect
       effect="bspline"
       id="path-effect36"
       is_visible="true"
       lpeversion="1"
       weight="33.333333"
       steps="2"
       helper_size="0"
       apply_no_weight="true"
       apply_with_weight="true"
       only_selected="false" />
  </defs>
  <sodipodi:namedview
     id="base"
     pagecolor="#ffffff"
     bordercolor="#666666"
     borderopacity="1.0"
     inkscape:pageopacity="0.0"
     inkscape:pageshadow="2"
     inkscape:zoom="1.4"
     inkscape:cx="213.48473"
     inkscape:cy="213.67458"
     inkscape:document-units="mm"
     inkscape:current-layer="layer1"
     inkscape:document-rotation="0"
     showgrid="false"
     inkscape:snap-global="false"
     fit-margin-top="0"
     fit-margin-left="0"
     fit-margin-right="0"
     fit-margin-bottom="0"
     inkscape:pagecheckerboard="true"
     inkscape:window-width="1920"
     inkscape:window-height="1017"
     inkscape:window-x="-8"
     inkscape:window-y="-8"
     inkscape:window-maximized="1" />
  <metadata
     id="metadata5">
    <rdf:RDF>
      <cc:Work
         rdf:about="">
        <dc:format>image/svg+xml</dc:format>
        <dc:type
           rdf:resource="http://purl.org/dc/dcmitype/StillImage" />
        <dc:title></dc:title>
      </cc:Work>
    </rdf:RDF>
  </metadata>
  <g
     inkscape:label="Layer 1"
     inkscape:groupmode="layer"
     id="layer1"
     transform="translate(-63.556694,-39.989885)">
    <g
       id="g46"
       transform="translate(0.75594767,3.4017857)">
      <path
         style="fill:#fafa1c;stroke-width:0.264583"
         d="m 175.71168,91.710785 c 0.1819,-0.0734 0.47956,-0.0734 0.66146,0 0.1819,0.0734 0.0331,0.133453 -0.33073,0.133453 -0.3638,0 -0.51263,-0.06006 -0.33073,-0.133453 z"
         id="path64" />
      <path
         style="fill:#fbfb16;stroke-width:0.264583"
         d="m 168.4909,91.603827 c -0.27148,-0.439264 -0.0278,-0.500176 0.35204,-0.088 0.18764,0.203605 0.22443,0.370189 0.0818,0.370189 -0.14267,0 -0.33788,-0.126984 -0.4338,-0.282186 z"
         id="path62" />
      <path
         style="fill:#fefe00;stroke-width:0.264583"
         d="m 168.63407,114.90476 v -2.11666 h -4.23333 -4.23333 v -12.7 -12.700003 h 8.46666 8.46667 v 2.116666 2.116667 h 2.11667 2.11666 v 12.7 12.7 h -6.35 -6.35 z m 0.20887,-23.388936 c -0.18764,-0.203605 -0.38285,-0.330589 -0.4338,-0.282186 -0.15693,0.149082 0.24081,0.652375 0.51556,0.652375 0.14267,0 0.10588,-0.166584 -0.0818,-0.370189 z m 7.66249,0.187804 c -0.25466,-0.06655 -0.67138,-0.06655 -0.92604,0 -0.25467,0.06655 -0.0463,0.121002 0.46302,0.121002 0.50932,0 0.71768,-0.05445 0.46302,-0.121002 z"
         id="path60" />
      <path
         style="fill:#00fe00;stroke-width:0.264583"
         d="m 168.63407,81.038097 v -2.116666 h -4.23333 -4.23333 v -12.7 -12.699999 h 8.46666 8.46667 v 2.116666 2.116667 h 2.11667 2.11666 v 12.699999 12.7 h -6.35 -6.35 z"
         id="path58" />
      <path
         style="fill:#fc0000;stroke-width:0.264583"
         d="m 92.434078,78.921431 v -4.233334 h 2.116667 2.116666 v -2.116666 -2.116667 h 2.116667 2.116662 v 4.233333 4.233334 h -2.116662 -2.116667 v 2.116666 2.116667 h -2.116666 -2.116667 z m 12.700002,-2.116667 v -6.35 h 4.23333 4.23333 v -2.116666 -2.116667 h 2.11667 2.11667 v 6.35 6.35 h -4.23334 -4.23333 v 2.116666 2.116667 h -2.11667 -2.11666 z m 25.4,-6.35 V 57.754765 h 2.11666 2.11667 v -2.116667 -2.116666 h 8.46667 8.46666 v 12.699999 12.7 h -4.23333 -4.23333 v 2.116666 2.116667 h -6.35 -6.35 z m -50.800001,4.233333 v -4.233333 h 2.116666 2.116667 v -2.116666 -2.116667 h 2.116666 2.116667 v 4.233333 4.233333 h -2.116667 -2.116666 v 2.116667 2.116667 h -2.116667 -2.116666 z m -8.466667,-8.466666 v -4.233333 h 2.116667 2.116666 v 4.233333 4.233333 h -2.116666 -2.116667 z m -8.466666,-8.466666 v -4.233333 h 2.116667 2.116666 v 4.233333 4.233333 h -2.116666 -2.116667 z"
         id="path56" />
      <path
         style="fill:#0000fc;stroke-width:0.264583"
         d="m 92.434078,112.7881 v -4.23334 h 2.116667 2.116666 v -2.11666 -2.11667 h 2.116667 2.116662 v 4.23333 4.23334 h -2.116662 -2.116667 v 2.11666 2.11667 h -2.116666 -2.116667 z m 12.700002,-2.11667 v -6.35 h 4.23333 4.23333 v -2.11667 -2.11666 h 2.11667 2.11667 v 6.35 6.35 h -4.23334 -4.23333 v 2.11666 2.11667 h -2.11667 -2.11666 z m 25.4,-6.35 v -12.7 h 2.11666 2.11667 v -2.116667 -2.116666 h 8.46667 8.46666 v 12.700003 12.7 h -4.23333 -4.23333 v 2.11666 2.11667 h -6.35 -6.35 z m -50.800001,4.23333 v -4.23333 h 2.116666 2.116667 v -2.11667 -2.11666 h 2.116666 2.116667 v 4.23333 4.23333 h -2.116667 -2.116666 v 2.11667 2.11667 h -2.116667 -2.116666 z m -8.466667,-8.46666 v -4.233337 h 2.116667 2.116666 v 4.233337 4.23333 h -2.116666 -2.116667 z m -8.466666,-8.46667 v -4.233333 h 2.116667 2.116666 v 4.233333 4.233333 h -2.116666 -2.116667 z"
         id="path54" />
      <path
         style="fill:#050500;stroke-width:0.264583"
         d="m 179.28355,117.09291 2.05052,-0.0929 v -12.6786 -12.678601 l -2.18281,-0.09501 -2.18281,-0.09502 2.24896,0.01818 2.24896,0.01818 v 12.832291 12.83229 l -2.11667,0.016 -2.11667,0.016 2.05052,-0.0929 z m -19.25951,-4.37096 c -0.0697,-0.1819 -0.0957,-5.9862 -0.0578,-12.898437 l 0.0689,-12.567708 4.36562,-0.01045 4.36563,-0.01048 -4.29948,0.08316 -4.29948,0.08316 v 12.686895 12.68689 l 4.29948,0.0797 4.29948,0.0797 -4.30779,0.0591 c -3.24689,0.0446 -4.339,-0.0223 -4.43454,-0.27161 z"
         id="path52" />
      <path
         style="fill:#020400;stroke-width:0.264583"
         d="m 168.48048,116.92903 c -0.0753,-0.19634 -0.0949,-1.1786 -0.0435,-2.18281 l 0.0935,-1.82583 0.0518,2.04396 0.0518,2.04397 4.29948,0.0797 4.29948,0.0797 -4.30778,0.0591 c -3.41258,0.0468 -4.33625,-0.0151 -4.44477,-0.29787 z m 8.67208,-27.483859 -0.0518,-2.043967 -4.29948,-0.07973 -4.29948,-0.07973 4.30778,-0.05912 c 3.41259,-0.04683 4.33625,0.01508 4.44477,0.297863 0.0753,0.196339 0.0949,1.178605 0.0435,2.182812 l -0.0935,1.825834 z"
         id="path50" />
      <path
         style="fill:#000000;stroke-width:0.264583"
         d="m 92.434078,129.72143 v -4.23334 h 2.116667 2.116666 v -2.11666 -2.11667 h 2.116667 2.116662 v 4.23333 4.23334 h -2.116662 -2.116667 v 2.11666 2.11667 h -2.116666 -2.116667 z m 12.700002,-2.11667 v -6.35 h 4.23333 4.23333 v -2.11666 -2.11667 h 2.11667 2.11667 v 6.35 6.35 h -4.23334 -4.23333 v 2.11666 2.11667 h -2.11667 -2.11666 z M 122.06741,91.62143 V 49.288099 h 2.11667 2.11666 v -2.116667 -2.116666 h 4.23334 4.23333 v -2.116667 -2.116667 h 21.16666 21.16667 v 2.116667 2.116667 h 4.23333 4.23334 v 2.116666 2.116667 h 2.11666 2.11667 v 42.333331 42.33333 h -4.23333 -4.23334 v -2.11667 -2.11666 h -4.23333 -4.23333 v -2.11667 -2.11667 h -16.93334 -16.93333 v 2.11667 2.11667 h -4.23333 -4.23333 v 2.11666 2.11667 h -4.23334 -4.23333 z m 59.39896,12.7 V 91.489138 l -2.03959,-0.07708 -2.03959,-0.07708 -0.0771,-2.039589 -0.0771,-2.039588 h -8.59896 -8.59895 v 12.832299 12.83229 l 4.16718,0.0729 4.16719,0.0729 v 1.93356 c 0,1.06345 0.0814,2.015 0.18098,2.11454 0.0995,0.0995 3.04634,0.14915 6.54844,0.11024 l 6.36746,-0.0707 z m -38.23229,10.58333 v -2.11666 h 4.23333 4.23333 v -12.7 -12.700003 h -8.46666 -8.46667 v 2.116666 2.116667 h -2.11667 -2.11666 v 12.7 12.7 h 6.35 6.35 z m 0,-33.866663 v -2.116666 h 4.23333 4.23333 v -12.7 -12.699999 h -8.46666 -8.46667 v 2.116666 2.116667 h -2.11667 -2.11666 v 12.699999 12.7 h 6.35 6.35 z M 181.33407,70.454764 V 57.754765 h -2.11666 -2.11667 v -2.116667 -2.116666 h -8.46667 -8.46666 v 12.699999 12.7 h 4.23333 4.23333 v 2.116666 2.116667 h 6.35 6.35 z M 79.734079,125.48809 v -4.23333 h 2.116666 2.116667 v -2.11666 -2.11667 h 2.116666 2.116667 v 4.23333 4.23333 h -2.116667 -2.116666 v 2.11667 2.11667 h -2.116667 -2.116666 z m -8.466667,-8.46666 v -4.23333 h 2.116667 2.116666 v 4.23333 4.23333 h -2.116666 -2.116667 z m -8.466666,-8.46667 v -4.23333 h 2.116667 2.116666 v 4.23333 4.23334 H 64.917413 62.800746 Z M 92.434078,95.854763 V 91.62143 h 2.116667 2.116666 v -2.116667 -2.116666 h 2.116667 2.116662 v 4.233333 4.233333 h -2.116662 -2.116667 v 2.116667 2.11667 h -2.116666 -2.116667 z m 12.700002,-2.116666 v -6.35 h 4.23333 4.23333 V 85.27143 83.154764 h 2.11667 2.11667 v 6.349999 6.35 h -4.23334 -4.23333 v 2.116667 2.11667 h -2.11667 -2.11666 z M 79.734079,91.62143 v -4.233333 h 2.116666 2.116667 V 85.27143 83.154764 h 2.116666 2.116667 v 4.233333 4.233333 h -2.116667 -2.116666 v 2.116667 2.116666 h -2.116667 -2.116666 z m -8.466667,-8.466666 v -4.233333 h 2.116667 2.116666 v 4.233333 4.233333 h -2.116666 -2.116667 z m -8.466666,-8.466667 v -4.233333 h 2.116667 2.116666 v 4.233333 4.233334 H 64.917413 62.800746 Z M 92.434078,61.988098 v -4.233333 h 2.116667 2.116666 v -2.116667 -2.116666 h 2.116667 2.116662 v 4.233333 4.233333 h -2.116662 -2.116667 v 2.116667 2.116666 h -2.116666 -2.116667 z m 12.700002,-2.116666 v -6.35 h 4.23333 4.23333 v -2.116667 -2.116666 h 2.11667 2.11667 v 6.349999 6.35 h -4.23334 -4.23333 v 2.116667 2.116666 h -2.11667 -2.11666 z M 79.734079,57.754765 v -4.233333 h 2.116666 2.116667 v -2.116667 -2.116666 h 2.116666 2.116667 v 4.233333 4.233333 h -2.116667 -2.116666 v 2.116667 2.116666 h -2.116667 -2.116666 z m -8.466667,-8.466666 v -4.233333 h 2.116667 2.116666 v 4.233333 4.233333 h -2.116666 -2.116667 z m -8.466666,-8.466667 v -4.233333 h 2.116667 2.116666 v 4.233333 4.233334 h -2.116666 -2.116667 z"
         id="path48" />
    </g>
  </g>
</svg>
