<?xml version="1.0" encoding="UTF-8" standalone="no"?>
<svg
   xmlns:dc="http://purl.org/dc/elements/1.1/"
   xmlns:cc="http://creativecommons.org/ns#"
   xmlns:rdf="http://www.w3.org/1999/02/22-rdf-syntax-ns#"
   xmlns:svg="http://www.w3.org/2000/svg"
   xmlns="http://www.w3.org/2000/svg"
   xmlns:sodipodi="http://sodipodi.sourceforge.net/DTD/sodipodi-0.dtd"
   xmlns:inkscape="http://www.inkscape.org/namespaces/inkscape"
   width="60.515766mm"
   height="60.471722mm"
   viewBox="0 0 60.515766 60.471722"
   version="1.1"
   id="svg8"
   inkscape:version="1.0.1 (3bc2e813f5, 2020-09-07)"
   sodipodi:docname="XPLogOff.svg">
  <defs
     id="defs2">
    <inkscape:path-effect
       effect="bspline"
       id="path-effect2182"
       is_visible="true"
       lpeversion="1"
       weight="33.333333"
       steps="2"
       helper_size="0"
       apply_no_weight="true"
       apply_with_weight="true"
       only_selected="false" />
    <inkscape:path-effect
       effect="bspline"
       id="path-effect2178"
       is_visible="true"
       lpeversion="1"
       weight="33.333333"
       steps="2"
       helper_size="0"
       apply_no_weight="true"
       apply_with_weight="true"
       only_selected="false" />
    <inkscape:path-effect
       effect="bspline"
       id="path-effect2174"
       is_visible="true"
       lpeversion="1"
       weight="33.333333"
       steps="2"
       helper_size="0"
       apply_no_weight="true"
       apply_with_weight="true"
       only_selected="false" />
    <inkscape:path-effect
       effect="bspline"
       id="path-effect2170"
       is_visible="true"
       lpeversion="1"
       weight="33.333333"
       steps="2"
       helper_size="0"
       apply_no_weight="true"
       apply_with_weight="true"
       only_selected="false" />
    <inkscape:path-effect
       effect="bspline"
       id="path-effect50"
       is_visible="true"
       lpeversion="1"
       weight="33.333333"
       steps="2"
       helper_size="0"
       apply_no_weight="true"
       apply_with_weight="true"
       only_selected="false" />
    <inkscape:path-effect
       effect="bspline"
       id="path-effect46"
       is_visible="true"
       lpeversion="1"
       weight="33.333333"
       steps="2"
       helper_size="0"
       apply_no_weight="true"
       apply_with_weight="true"
       only_selected="false" />
    <inkscape:path-effect
       effect="bspline"
       id="path-effect36"
       is_visible="true"
       lpeversion="1"
       weight="33.333333"
       steps="2"
       helper_size="0"
       apply_no_weight="true"
       apply_with_weight="true"
       only_selected="false" />
  </defs>
  <sodipodi:namedview
     id="base"
     pagecolor="#ffffff"
     bordercolor="#666666"
     borderopacity="1.0"
     inkscape:pageopacity="0.0"
     inkscape:pageshadow="2"
     inkscape:zoom="2.8"
     inkscape:cx="134.10328"
     inkscape:cy="122.34864"
     inkscape:document-units="mm"
     inkscape:current-layer="layer1"
     inkscape:document-rotation="0"
     showgrid="false"
     inkscape:snap-global="false"
     fit-margin-top="0"
     fit-margin-left="0"
     fit-margin-right="0"
     fit-margin-bottom="0"
     inkscape:pagecheckerboard="true"
     inkscape:window-width="1920"
     inkscape:window-height="1017"
     inkscape:window-x="-8"
     inkscape:window-y="-8"
     inkscape:window-maximized="1" />
  <metadata
     id="metadata5">
    <rdf:RDF>
      <cc:Work
         rdf:about="">
        <dc:format>image/svg+xml</dc:format>
        <dc:type
           rdf:resource="http://purl.org/dc/dcmitype/StillImage" />
        <dc:title></dc:title>
      </cc:Work>
    </rdf:RDF>
  </metadata>
  <g
     inkscape:label="Layer 1"
     inkscape:groupmode="layer"
     id="layer1"
     transform="translate(-97.363285,-61.940607)">
    <path
       style="fill:#ffffff;stroke:none;stroke-width:0.264583px;stroke-linecap:butt;stroke-linejoin:miter;stroke-opacity:1"
       d="m 104.62398,121.82962 c 0.0474,0.008 0.14189,0.0236 1.0632,0.0669 0.92132,0.0433 2.66942,0.11416 4.47664,0.19291 1.80722,0.0787 3.67344,0.16536 5.45703,0.2126 1.78358,0.0472 3.48444,0.0551 5.66571,0.0709 2.18126,0.0157 4.84279,0.0394 7.20909,0.0394 2.36631,-10e-6 4.43727,-0.0236 6.48072,-0.0551 2.04345,-0.0315 4.05929,-0.0709 5.85862,-0.11419 1.79934,-0.0433 3.38208,-0.0905 4.87037,-0.14568 1.4883,-0.0551 2.88206,-0.11811 3.90574,-0.189 1.02369,-0.0709 1.67725,-0.14962 2.25205,-0.2835 0.5748,-0.13388 1.07089,-0.32287 1.54726,-0.56697 0.47637,-0.24411 0.93308,-0.54334 1.3071,-0.82681 0.37402,-0.28347 0.66537,-0.55119 0.94095,-0.88583 0.27559,-0.33463 0.53544,-0.73622 0.77561,-1.17717 0.24017,-0.44095 0.46065,-0.92128 0.62602,-1.4016 0.16537,-0.48031 0.27561,-0.96065 0.34256,-1.61421 0.067,-0.65356 0.0906,-1.48036 0.12603,-2.54737 0.0354,-1.06701 0.0827,-2.37415 0.12207,-3.78764 0.0394,-1.41349 0.0709,-2.93323 0.0945,-4.4609 0.0236,-1.52767 0.0394,-3.06317 0.0551,-4.724708 0.0157,-1.661534 0.0315,-3.449012 0.0472,-5.126297 0.0157,-1.677284 0.0315,-3.24428 0.0315,-5.145992 0,-1.901713 -0.0158,-4.138027 -0.0433,-6.185415 -0.0276,-2.047388 -0.0669,-3.905735 -0.10631,-5.665702 -0.0394,-1.759968 -0.0787,-3.421455 -0.12599,-4.799502 -0.0472,-1.378047 -0.10236,-2.472578 -0.18109,-3.27576 -0.0787,-0.803181 -0.18112,-1.314996 -0.3189,-1.787455 -0.13778,-0.472459 -0.31101,-0.905549 -0.46847,-1.240221 -0.15747,-0.334672 -0.2992,-0.570904 -0.50391,-0.830786 -0.2047,-0.259881 -0.47243,-0.543354 -0.79134,-0.850476 -0.31891,-0.307122 -0.68901,-0.637841 -1.01185,-0.874122 -0.32284,-0.23628 -0.59844,-0.378018 -0.98035,-0.543403 -0.38192,-0.165385 -0.87013,-0.354369 -1.33473,-0.492206 -0.46461,-0.137838 -0.90558,-0.224457 -1.4765,-0.295346 -0.57091,-0.07089 -1.27173,-0.12601 -2.57499,-0.185076 -1.30325,-0.05907 -3.20884,-0.122061 -5.00031,-0.173247 -1.79146,-0.05119 -3.4687,-0.09056 -5.15386,-0.125994 -1.68517,-0.03543 -3.37816,-0.06693 -5.10663,-0.08268 -1.72847,-0.01575 -3.49232,-0.01575 -5.18142,0.0039 -1.68911,0.01968 -3.30335,0.05906 -4.8507,0.08268 -1.54735,0.02363 -3.02772,0.0315 -4.51996,0.03937 -1.49223,0.0079 -2.99623,0.01575 -4.32704,0.05511 -1.33082,0.03937 -2.48835,0.110235 -3.7404,0.169298 -1.25206,0.05906 -2.59857,0.106308 -3.64983,0.157489 -1.05126,0.05118 -1.80719,0.1063 -2.30724,0.157473 -0.50006,0.05117 -0.74417,0.09842 -1.07099,0.188973 -0.32681,0.09055 -0.73627,0.224414 -1.16942,0.437034 -0.43316,0.21262 -0.88987,0.503969 -1.29938,0.834726 -0.40952,0.330757 -0.771734,0.70085 -1.133984,1.161544 -0.36225,0.460694 -0.724469,1.011899 -0.964649,1.409587 -0.24018,0.397689 -0.358295,0.641794 -0.460656,1.008014 -0.102362,0.366219 -0.188979,0.854428 -0.251965,1.40173 -0.06298,0.547302 -0.102357,1.153627 -0.137788,2.094648 -0.03543,0.941022 -0.06693,2.216666 -0.09055,3.5081 -0.02362,1.291433 -0.03937,2.598575 -0.05118,4.000252 -0.01181,1.401678 -0.01968,2.897804 -0.04331,4.799518 -0.02362,1.901713 -0.063,4.208897 -0.07874,6.34291 -0.01575,2.134013 -0.0079,4.094726 0.01969,6.224804 0.02756,2.130078 0.07481,4.429392 0.106306,6.256282 0.0315,1.8269 0.04725,3.18129 0.07481,4.43335 0.02756,1.25206 0.06694,2.40172 0.09843,3.49235 0.0315,1.09063 0.05512,2.12217 0.07481,2.93718 0.01969,0.81502 0.03544,1.41347 0.06695,1.92532 0.03151,0.51186 0.07876,0.93708 0.11814,1.24025 0.03938,0.30318 0.07088,0.48429 0.153609,0.72054 0.08273,0.23624 0.216594,0.52759 0.401674,0.85438 0.18508,0.32679 0.421311,0.68901 0.64575,1.00792 0.224439,0.31892 0.437046,0.59452 0.716628,0.86616 0.279577,0.27164 0.626047,0.53936 0.996167,0.78739 0.37011,0.24802 0.76383,0.47638 1.1615,0.65352 0.39766,0.17713 0.79926,0.30313 1.16936,0.40154 0.37009,0.0984 0.70869,0.16928 0.93704,0.20074 0.22834,0.0315 0.34643,0.0236 0.40537,0.0197 0.0589,-0.004 0.0589,-0.004 0.10635,0.004 z"
       id="path2168"
       inkscape:path-effect="#path-effect2170"
       inkscape:original-d="m 104.57656,121.82173 c 0.0948,0.016 0.18926,0.0318 0.28349,0.0472 1.74844,0.0711 3.49654,0.14201 5.24442,0.21262 1.86656,0.0869 3.73278,0.1735 5.59877,0.25986 1.70119,0.008 3.40205,0.016 5.10268,0.0236 2.6619,0.0239 5.32343,0.0475 7.98474,0.0709 2.0713,-0.0234 4.14226,-0.047 6.21299,-0.0709 2.01618,-0.0391 4.03201,-0.0785 6.04762,-0.11812 1.58307,-0.047 3.16581,-0.0942 4.74832,-0.14173 1.39408,-0.0627 2.78784,-0.12573 4.18136,-0.18899 0.65387,-0.0785 1.30744,-0.15723 1.96075,-0.23624 0.49637,-0.18872 0.99246,-0.37771 1.48829,-0.56696 0.45699,-0.29898 0.9137,-0.5982 1.37016,-0.8977 0.29163,-0.26747 0.58298,-0.5352 0.87407,-0.80319 0.26013,-0.40135 0.51998,-0.80294 0.77958,-1.2048 0.22075,-0.4801 0.44123,-0.96043 0.66146,-1.44104 0.1105,-0.48009 0.22075,-0.96043 0.33072,-1.44103 0.0239,-0.82658 0.0475,-1.65338 0.0709,-2.48047 0.0475,-1.30693 0.0948,-2.61407 0.14175,-3.9215 0.0318,-1.51955 0.0632,-3.0393 0.0945,-4.55934 0.016,-1.5353 0.0318,-3.0708 0.0473,-4.606588 0.016,-1.787282 0.0318,-3.574759 0.0472,-5.362535 0.016,-1.566794 0.0318,-3.133789 0.0473,-4.70108 -0.0155,-2.236139 -0.0312,-4.472453 -0.0473,-6.709078 -0.0391,-1.858155 -0.0785,-3.716501 -0.11812,-5.575148 -0.0391,-1.661289 -0.0785,-3.322776 -0.11811,-4.984561 -0.0549,-1.094314 -0.10998,-2.188847 -0.16537,-3.283668 -0.10212,-0.51157 -0.2045,-1.023385 -0.30715,-1.535474 -0.17298,-0.432842 -0.34622,-0.865931 -0.51972,-1.299293 -0.14148,-0.235975 -0.28322,-0.472206 -0.42522,-0.708705 -0.26748,-0.283224 -0.5352,-0.5667 -0.8032,-0.850447 -0.36985,-0.330471 -0.73994,-0.661194 -1.11031,-0.992187 -0.27535,-0.14148 -0.55095,-0.283218 -0.82682,-0.425223 -0.48796,-0.188728 -0.97617,-0.377712 -1.46466,-0.566965 -0.44071,-0.08636 -0.88168,-0.172974 -1.32291,-0.259858 -0.70058,-0.05486 -1.4014,-0.109979 -2.1025,-0.165365 -1.9054,-0.06273 -3.81099,-0.125727 -5.71689,-0.188988 -1.67703,-0.03911 -3.35427,-0.07848 -5.0318,-0.118118 -1.69279,-0.03123 -3.38578,-0.06273 -5.07906,-0.09449 -1.76366,2.65e-4 -3.52751,2.65e-4 -5.29167,0 -1.61404,0.03964 -3.22828,0.07901 -4.84282,0.118118 -1.48017,0.0081 -2.96054,0.01601 -4.44122,0.02362 -1.50379,0.0081 -3.00779,0.01601 -4.51209,0.02362 -1.15731,0.07114 -2.31484,0.142006 -3.47265,0.212612 -1.34631,0.04751 -2.69282,0.09476 -4.03962,0.141741 -0.75571,0.05539 -1.51164,0.110507 -2.26786,0.165364 -0.24385,0.04751 -0.48796,0.09476 -0.73233,0.141741 -0.40922,0.134134 -0.81868,0.267998 -1.22842,0.4016 -0.45647,0.291627 -0.91318,0.582978 -1.37017,0.87407 -0.36197,0.370374 -0.724186,0.740468 -1.086678,1.110305 -0.361969,0.551491 -0.724189,1.102695 -1.086681,1.653646 -0.117856,0.244379 -0.235971,0.488484 -0.354353,0.732329 -0.08636,0.488493 -0.172974,0.976703 -0.259858,1.464657 -0.03911,0.606614 -0.07848,1.212939 -0.118118,1.819011 -0.03123,1.27596 -0.06273,2.551604 -0.09449,3.827009 -0.01549,1.307458 -0.03123,2.6146 -0.04725,3.921503 -0.0076,1.49645 -0.01548,2.992576 -0.02362,4.488467 -0.03911,2.30754 -0.07848,4.614724 -0.118117,6.921689 0.0081,1.961055 0.01601,3.921768 0.02362,5.882254 0.04751,2.299666 0.09476,4.598975 0.141741,6.898065 0.01601,1.35471 0.03176,2.7091 0.04725,4.06325 0.03964,1.14996 0.07901,2.29962 0.118118,3.44903 0.02389,1.03185 0.04751,2.06339 0.07087,3.09468 0.01601,0.59874 0.03176,1.19719 0.04725,1.79539 0.04751,0.42549 0.09476,0.85071 0.141741,1.27567 0.03176,0.18138 0.06326,0.36249 0.09449,0.54334 0.134133,0.29163 0.267997,0.58298 0.401599,0.87407 0.236505,0.3625 0.472735,0.72472 0.708706,1.08668 0.21288,0.27588 0.425488,0.55148 0.637835,0.82682 0.346745,0.26801 0.693215,0.53573 1.039435,0.8032 0.39399,0.22863 0.78771,0.45699 1.18117,0.68508 0.40187,0.12626 0.80347,0.25225 1.2048,0.37798 0.33888,0.0711 0.67747,0.14201 1.01581,0.21261 0.11838,-0.008 0.2365,-0.0155 0.35435,-0.0236 z" />
    <path
       style="fill:#f7cb1b;fill-opacity:1;stroke:none;stroke-width:0.264583px;stroke-linecap:butt;stroke-linejoin:miter;stroke-opacity:1"
       d="m 103.05031,118.91952 c 0.13933,-0.006 0.41773,-0.0167 1.73741,0.0223 1.31968,0.039 3.68051,0.12808 6.15278,0.1949 2.47226,0.0668 5.05582,0.11136 7.48911,0.16704 2.43329,0.0557 4.71617,0.1225 6.68729,0.15034 1.97113,0.0278 3.63039,0.0167 5.67391,-0.0167 2.04352,-0.0334 4.47117,-0.0891 6.96015,-0.13363 2.48898,-0.0445 5.03912,-0.078 7.04922,-0.1225 2.0101,-0.0446 3.48005,-0.10023 4.71061,-0.16705 1.23056,-0.0668 2.22166,-0.14478 2.82295,-0.23945 0.60128,-0.0947 0.81287,-0.20604 0.98546,-0.31183 0.1726,-0.10579 0.30621,-0.206 0.43982,-0.33404 0.1336,-0.12804 0.26724,-0.28395 0.37858,-0.4899 0.11134,-0.20594 0.20044,-0.46209 0.25614,-1.1692 0.0557,-0.70711 0.078,-1.86526 0.11137,-4.45447 0.0334,-2.58921 0.0779,-6.60931 0.11136,-10.76874 0.0334,-4.159418 0.0557,-8.457916 0.0557,-12.455859 0,-3.997942 -0.0223,-7.695097 -0.0724,-11.10838 -0.0501,-3.413283 -0.12806,-6.542502 -0.17816,-8.268615 -0.0501,-1.726113 -0.0724,-2.049059 -0.16136,-2.310755 -0.089,-0.261695 -0.24489,-0.462146 -0.42305,-0.662614 -0.17816,-0.200468 -0.37861,-0.400916 -0.61801,-0.556893 -0.23941,-0.155976 -0.51781,-0.267337 -0.84078,-0.33421 -0.32298,-0.06687 -0.69046,-0.08915 -1.78741,-0.10586 -1.09694,-0.01671 -2.92325,-0.02785 -5.26745,-0.08353 -2.3442,-0.05568 -5.20615,-0.155902 -7.9457,-0.20602 -2.73954,-0.05012 -5.3565,-0.05012 -7.76751,-0.06125 -2.41102,-0.01113 -4.61595,-0.03341 -7.32766,-0.0056 -2.71171,0.02784 -5.93002,0.105788 -8.51364,0.161471 -2.58362,0.05568 -4.53242,0.08909 -6.27526,0.133633 -1.74284,0.04454 -3.27961,0.100223 -4.1817,0.178155 -0.90209,0.07793 -1.16936,0.178157 -1.3532,0.30072 -0.18385,0.122562 -0.28406,0.267314 -0.4177,0.462201 -0.13364,0.194887 -0.30068,0.439879 -0.41761,0.651504 -0.11694,0.211626 -0.18376,0.389821 -0.21157,0.646021 -0.0278,0.256201 -0.0167,0.590279 -0.0557,1.887663 -0.039,1.297384 -0.12808,3.557994 -0.18375,5.846517 -0.0557,2.288522 -0.078,4.604813 -0.0891,6.815376 -0.0111,2.210564 -0.0111,4.315269 -0.0223,6.50356 -0.0111,2.18829 -0.0334,4.460037 -0.0278,6.893332 0.006,2.433296 0.039,5.027975 0.0724,7.516945 0.0334,2.48897 0.0668,4.87208 0.11137,6.88776 0.0445,2.01568 0.10023,3.66381 0.14477,4.80528 0.0446,1.14147 0.078,1.77622 0.13929,2.17716 0.0613,0.40093 0.15041,0.56795 0.26736,0.75727 0.11695,0.18931 0.26172,0.40089 0.43439,0.5623 0.17267,0.16142 0.37311,0.27277 0.57915,0.37298 0.20603,0.10021 0.4176,0.18929 0.52323,0.23377 0.10564,0.0445 0.10561,0.0445 0.24494,0.0389 z"
       id="path2172"
       inkscape:path-effect="#path-effect2174"
       inkscape:original-d="m 102.91098,118.92509 c 0.27867,-0.0109 0.55707,-0.022 0.83521,-0.0334 2.3612,0.0894 4.72203,0.17845 7.08265,0.26727 2.58392,0.0448 5.16747,0.0894 7.75081,0.13364 2.28324,0.0671 4.56612,0.1339 6.84879,0.20045 1.65959,-0.0109 3.31885,-0.022 4.97789,-0.0334 2.42801,-0.0554 4.85566,-0.1111 7.28309,-0.16704 2.55052,-0.0332 5.10066,-0.0666 7.65059,-0.10023 1.47028,-0.0554 2.94023,-0.11109 4.40995,-0.16704 0.99141,-0.0777 1.98251,-0.15564 2.97338,-0.23386 0.21185,-0.1111 0.42344,-0.22246 0.63476,-0.33409 0.1339,-0.1 0.26753,-0.20019 0.40091,-0.30068 0.1339,-0.15564 0.26753,-0.31155 0.4009,-0.46772 0.0893,-0.25587 0.17844,-0.512 0.26727,-0.7684 0.0225,-1.15793 0.0448,-2.31607 0.0668,-3.4745 0.0448,-4.02 0.0893,-8.0401 0.13363,-12.06054 0.0225,-4.298407 0.0448,-8.596905 0.0668,-12.895754 -0.022,-3.697039 -0.0443,-7.394193 -0.0668,-11.091686 -0.0777,-3.129078 -0.15564,-6.258297 -0.23386,-9.387842 -0.022,-0.322692 -0.0443,-0.645636 -0.0668,-0.968852 -0.15564,-0.200191 -0.31155,-0.400639 -0.46772,-0.601356 -0.20019,-0.200192 -0.40064,-0.40064 -0.60136,-0.601357 -0.27814,-0.1111 -0.55654,-0.22246 -0.83521,-0.334086 -0.36724,-0.02201 -0.73473,-0.04428 -1.10249,-0.06682 -1.82611,-0.01087 -3.65242,-0.02201 -5.47902,-0.03341 -2.86181,-0.09996 -5.72376,-0.200187 -8.58604,-0.300678 -2.6168,2.65e-4 -5.23376,2.65e-4 -7.85104,0 -2.20475,-0.02201 -4.40968,-0.04428 -6.61492,-0.06682 -3.21817,0.07822 -6.43648,0.156172 -9.65511,0.233861 -1.94862,0.03367 -3.89742,0.06708 -5.84652,0.100226 -1.53657,0.05595 -3.07334,0.111627 -4.6104,0.167043 -0.26701,0.100493 -0.53428,0.200717 -0.80181,0.300678 -0.1,0.145039 -0.20019,0.289807 -0.30068,0.434313 -0.16678,0.245267 -0.33382,0.490259 -0.50113,0.734992 -0.0665,0.178447 -0.13337,0.356624 -0.20045,0.534539 0.0114,0.334358 0.0225,0.668438 0.0334,1.00226 -0.0888,2.260965 -0.17792,4.521574 -0.26727,6.781965 -0.022,2.316646 -0.0443,4.632936 -0.0668,6.949007 2.6e-4,2.105054 2.6e-4,4.209759 0,6.314244 -0.022,2.272099 -0.0443,4.543845 -0.0668,6.815373 0.0337,2.595057 0.0671,5.18974 0.10023,7.78422 0.0337,2.38346 0.0671,4.76657 0.10022,7.14946 0.0559,1.64846 0.11163,3.29659 0.16705,4.94449 0.0337,0.63504 0.0671,1.26979 0.10022,1.90429 0.0894,0.16731 0.17845,0.33435 0.26727,0.50113 0.14504,0.21186 0.28981,0.42344 0.43432,0.63477 0.20072,0.11162 0.40116,0.22299 0.60135,0.33408 0.21186,0.0894 0.42344,0.17845 0.63477,0.26727 z" />
    <path
       style="fill:#ffffff;stroke:none;stroke-width:0.264583px;stroke-linecap:butt;stroke-linejoin:miter;stroke-opacity:1"
       d="m 138.24811,84.05565 c 0.0317,0.0079 0.0946,0.02366 0.30721,0.0079 0.21257,-0.0158 0.57479,-0.06305 0.933,-0.204799 0.35821,-0.14175 0.71256,-0.377977 1.02749,-0.704722 0.31493,-0.326745 0.59054,-0.744083 0.77559,-1.216489 0.18506,-0.472406 0.27955,-0.99998 0.27173,-1.503904 -0.008,-0.503924 -0.11807,-0.984258 -0.29122,-1.362251 -0.17316,-0.377993 -0.40939,-0.653595 -0.69285,-0.901684 -0.28345,-0.248089 -0.61417,-0.46857 -0.95277,-0.630053 -0.3386,-0.161483 -0.68508,-0.263851 -1.01978,-0.307213 -0.3347,-0.04336 -0.65754,-0.02761 -0.97258,0.0393 -0.31504,0.06691 -0.62214,0.185029 -0.87811,0.31103 -0.25596,0.126 -0.46069,0.259863 -0.68121,0.440998 -0.22052,0.181135 -0.45675,0.40949 -0.64577,0.696982 -0.18902,0.287492 -0.33075,0.633961 -0.42523,1.019867 -0.0945,0.385906 -0.14173,0.811116 -0.11017,1.212762 0.0316,0.401646 0.1418,0.779615 0.29541,1.110341 0.15361,0.330726 0.35047,0.614204 0.55919,0.834648 0.20872,0.220443 0.4292,0.377929 0.69301,0.523571 0.26381,0.145642 0.57091,0.279506 0.87408,0.381842 0.30317,0.102336 0.60239,0.173206 0.75185,0.208604 0.14946,0.0354 0.14946,0.03539 0.18113,0.04331 z"
       id="path2180"
       inkscape:path-effect="#path-effect2182"
       inkscape:original-d="m 138.21644,84.047732 c 0.0633,0.01601 0.12626,0.03176 0.18899,0.04725 0.3625,-0.04698 0.72472,-0.09423 1.08668,-0.141741 0.35463,-0.235975 0.70897,-0.472205 1.06306,-0.708705 0.27588,-0.417093 0.55148,-0.834433 0.82683,-1.252046 0.0948,-0.527338 0.18925,-1.054919 0.28348,-1.582776 -0.10998,-0.48009 -0.22022,-0.960424 -0.33073,-1.441034 -0.23598,-0.275348 -0.47221,-0.550951 -0.70871,-0.826823 -0.33047,-0.220226 -0.66119,-0.440707 -0.99218,-0.661458 -0.34622,-0.102106 -0.6927,-0.204473 -1.03944,-0.307106 -0.3226,0.01601 -0.64544,0.03176 -0.96856,0.04725 -0.30685,0.118385 -0.61395,0.2365 -0.92132,0.354353 -0.20448,0.134134 -0.40921,0.267998 -0.61421,0.4016 -0.23598,0.228629 -0.47221,0.456986 -0.70871,0.685081 -0.14148,0.34675 -0.28321,0.693222 -0.42522,1.039435 -0.047,0.425496 -0.0942,0.850711 -0.14174,1.27567 0.11051,0.378248 0.22075,0.756217 0.33073,1.133928 0.19713,0.283753 0.39399,0.567229 0.59058,0.850447 0.22076,0.157757 0.44124,0.315244 0.66146,0.47247 0.30738,0.134134 0.61448,0.267998 0.92132,0.4016 0.2995,0.07114 0.59873,0.142005 0.89769,0.212611 z" />
    <path
       style="fill:#ffffff;fill-opacity:1;stroke:none;stroke-width:0.252538"
       d="m 53.159389,221.91423 c -8.49589,-0.076 -15.530256,-0.22147 -15.631925,-0.32322 -0.101669,-0.10176 -0.380391,-8.68174 -0.619383,-19.06663 l -0.434531,-18.88162 0.563967,-0.63135 c 1.280326,-1.43329 56.850378,-65.08038 57.164454,-65.47324 0.293614,-0.36726 0.234283,-0.68587 -0.421645,-2.26421 -1.908923,-4.59337 -2.903365,-10.99359 -2.914373,-18.756857 -0.0044,-3.130329 0.126077,-6.434871 0.298957,-7.569336 1.613923,-10.590729 6.107779,-21.642374 12.11009,-29.782092 2.51326,-3.408234 9.21879,-10.042896 13.06117,-12.923142 9.64917,-7.233013 18.73791,-10.87955 29.92577,-12.006663 4.90986,-0.494642 14.17397,-0.43406 17.62642,0.115266 11.77175,1.873029 21.67088,6.341052 31.49225,14.214194 9.58532,7.683915 16.91794,18.063253 20.95527,29.662211 1.95177,5.607274 2.62121,9.606182 2.83221,16.918277 0.24623,8.532352 -0.5823,14.656592 -2.93581,21.700602 -2.67603,8.00934 -4.90184,12.34258 -9.54072,18.57404 -4.82597,6.48278 -9.89583,11.31223 -16.34272,15.56776 -4.46339,2.94624 -8.72272,4.96589 -15.04502,7.13388 -5.70395,1.95595 -8.7086,2.48258 -16.60332,2.91009 -9.41431,0.5098 -17.18031,-0.78504 -22.62252,-3.7719 -1.02008,-0.55986 -1.90902,-1.01792 -1.97543,-1.01792 -0.19205,0 -11.45293,12.9055 -11.45293,13.1256 0,0.10909 2.81265,2.49134 6.25032,5.29387 3.43768,2.80254 6.25032,5.1772 6.25032,5.27704 0,0.26145 -22.34192,27.30733 -23.2411,28.13438 l -0.75226,0.69192 -6.37547,-5.42606 c -3.50651,-2.98433 -6.489111,-5.41896 -6.628007,-5.41029 -0.138896,0.009 -4.94424,5.46307 -10.67854,12.12088 l -10.426001,12.10512 -4.221211,-0.0512 c -2.321666,-0.0282 -11.172393,-0.11339 -19.668282,-0.18941 z m 29.32449,-29.32525 c 6.243619,-7.22471 11.472196,-13.23556 11.61906,-13.35744 0.169506,-0.14068 2.710274,1.75446 6.956981,5.18914 3.67947,2.97592 6.82662,5.38201 6.99365,5.34688 0.36361,-0.0765 9.44906,-10.59224 9.35686,-10.82988 -0.0353,-0.0909 -3.0188,-2.62448 -6.6301,-5.63023 -3.6113,-3.00575 -6.59468,-5.5473 -6.62974,-5.6479 -0.0654,-0.18765 25.21729,-29.05742 25.76905,-29.42514 0.18846,-0.1256 1.35866,0.37425 3.04448,1.30044 4.86119,2.67074 10.01044,4.46828 14.98705,5.2318 3.36682,0.51654 12.0251,0.59383 15.48336,0.13822 3.21372,-0.4234 7.78325,-1.44589 9.9652,-2.22985 7.46108,-2.6807 15.25987,-8.96279 21.03959,-16.94781 1.86669,-2.57895 5.16451,-9.11992 6.57835,-13.04767 1.85251,-5.14642 2.47887,-8.41894 2.73096,-14.268401 0.55264,-12.823258 -4.20056,-25.23235 -13.28778,-34.690202 -4.00793,-4.171389 -8.29353,-7.23271 -14.0206,-10.015288 -10.06834,-4.891843 -20.44346,-6.339403 -30.87811,-4.308183 -5.2852,1.028824 -12.19628,3.897575 -17.10414,7.099836 -4.28414,2.795296 -9.15353,7.507423 -12.38818,11.988068 -1.85067,2.563557 -5.80204,10.328244 -6.77688,13.316995 -1.40593,4.310427 -2.0003,9.112455 -1.99323,16.103698 0.007,6.866977 0.93614,11.598097 3.56595,18.156277 l 1.23354,3.07618 -17.324273,20.13029 C 85.24658,150.34047 71.286333,166.55856 63.752153,175.309 l -13.698506,15.9099 -0.0035,3.15673 c -0.0019,1.7362 0.07055,4.94292 0.161101,7.12606 l 0.164629,3.96933 2.675584,0.0808 c 1.47157,0.0444 6.141669,0.10153 10.377996,0.1269 l 7.702413,0.0461 z"
       id="path2184"
       transform="matrix(0.26458333,0,0,0.26458333,93.756996,58.321728)" />
  </g>
</svg>
