<?xml version="1.0" encoding="UTF-8" standalone="no"?>
<svg
   xmlns:dc="http://purl.org/dc/elements/1.1/"
   xmlns:cc="http://creativecommons.org/ns#"
   xmlns:rdf="http://www.w3.org/1999/02/22-rdf-syntax-ns#"
   xmlns:svg="http://www.w3.org/2000/svg"
   xmlns="http://www.w3.org/2000/svg"
   xmlns:sodipodi="http://sodipodi.sourceforge.net/DTD/sodipodi-0.dtd"
   xmlns:inkscape="http://www.inkscape.org/namespaces/inkscape"
   width="58.620758mm"
   height="70.060974mm"
   viewBox="0 0 58.620759 70.060975"
   version="1.1"
   id="svg8"
   inkscape:version="1.0.1 (3bc2e813f5, 2020-09-07)"
   sodipodi:docname="jQuery_Logo.svg">
  <defs
     id="defs2">
    <inkscape:path-effect
       effect="bspline"
       id="path-effect50"
       is_visible="true"
       lpeversion="1"
       weight="33.333333"
       steps="2"
       helper_size="0"
       apply_no_weight="true"
       apply_with_weight="true"
       only_selected="false" />
    <inkscape:path-effect
       effect="bspline"
       id="path-effect46"
       is_visible="true"
       lpeversion="1"
       weight="33.333333"
       steps="2"
       helper_size="0"
       apply_no_weight="true"
       apply_with_weight="true"
       only_selected="false" />
    <inkscape:path-effect
       effect="bspline"
       id="path-effect36"
       is_visible="true"
       lpeversion="1"
       weight="33.333333"
       steps="2"
       helper_size="0"
       apply_no_weight="true"
       apply_with_weight="true"
       only_selected="false" />
  </defs>
  <sodipodi:namedview
     id="base"
     pagecolor="#ffffff"
     bordercolor="#666666"
     borderopacity="1.0"
     inkscape:pageopacity="0.0"
     inkscape:pageshadow="2"
     inkscape:zoom="1.979899"
     inkscape:cx="170.15522"
     inkscape:cy="138.27302"
     inkscape:document-units="mm"
     inkscape:current-layer="layer1"
     inkscape:document-rotation="0"
     showgrid="false"
     inkscape:snap-global="false"
     fit-margin-top="0"
     fit-margin-left="0"
     fit-margin-right="0"
     fit-margin-bottom="0"
     inkscape:pagecheckerboard="true"
     inkscape:window-width="1920"
     inkscape:window-height="1017"
     inkscape:window-x="-8"
     inkscape:window-y="-8"
     inkscape:window-maximized="1" />
  <metadata
     id="metadata5">
    <rdf:RDF>
      <cc:Work
         rdf:about="">
        <dc:format>image/svg+xml</dc:format>
        <dc:type
           rdf:resource="http://purl.org/dc/dcmitype/StillImage" />
        <dc:title></dc:title>
      </cc:Work>
    </rdf:RDF>
  </metadata>
  <g
     inkscape:label="Layer 1"
     inkscape:groupmode="layer"
     id="layer1"
     transform="translate(-102.79687,-52.340303)">
    <path
       style="fill:#000000;stroke-width:0.264583"
       d="m 131.51968,122.16175 c -3.09628,-0.27143 -4.52173,-0.60258 -7.31628,-1.69968 -8.1962,-3.21769 -14.82508,-9.29053 -18.45554,-16.90745 -2.24421,-4.708456 -3.3332,-10.31163 -2.82988,-14.560491 0.58132,-4.907293 1.77744,-7.836247 4.78962,-11.728394 1.03682,-1.339718 1.93106,-2.43585 1.98719,-2.43585 0.0561,0 -0.0796,0.434727 -0.30158,0.966058 -0.80893,1.936019 -1.4099,5.47425 -1.41572,8.334925 -0.0224,11.053979 7.0106,21.939542 17.7507,27.474052 4.94347,2.54743 9.68273,3.70393 15.1842,3.70531 6.81097,0.002 12.45424,-1.90814 16.93501,-5.73134 l 2.01587,-1.72004 -0.52086,1.02098 c -1.48015,2.90133 -5.08833,6.75015 -8.37585,8.93444 -3.90988,2.59781 -7.65833,3.89391 -12.60039,4.35684 -3.29153,0.30833 -3.22159,0.30842 -6.84649,-0.009 z m 8.82858,-18.50186 c -9.18875,-0.75458 -18.36376,-9.190127 -19.95553,-18.347221 -0.43214,-2.485954 -0.18935,-6.724134 0.51085,-8.917572 0.49474,-1.549842 3.38311,-6.505151 3.64127,-6.246993 0.0557,0.05573 -0.0999,0.625909 -0.34583,1.267072 -0.66585,1.73591 -0.65614,7.992057 0.0158,10.161584 1.1539,3.725841 2.91527,6.770111 5.54149,9.577639 8.56795,9.159451 22.91631,10.429441 30.53684,2.702853 0.61846,-0.62707 1.12448,-1.007546 1.12448,-0.845497 0,0.669459 -2.78355,4.387025 -4.38043,5.850274 -2.74693,2.517051 -6.76115,4.347501 -10.24341,4.670891 -3.30201,0.30665 -4.07271,0.32183 -6.44551,0.12697 z m 4.6008,-16.770865 c -0.98129,-0.346335 -2.30931,-0.937451 -2.95115,-1.313596 -2.79516,-1.638075 -5.59288,-4.994891 -6.65388,-7.983614 -0.66805,-1.881809 -0.67307,-5.662335 -0.01,-7.392138 0.49488,-1.290652 2.22929,-4.225325 1.87645,-3.175 -0.43334,1.289977 -0.45448,4.273452 -0.0417,5.882918 1.14943,4.481533 4.05274,8.027432 8.24132,10.065385 2.42441,1.179591 3.96058,1.511011 7.01146,1.512678 3.02015,0.0016 4.36524,-0.365659 6.06456,-1.656077 0.9692,-0.735994 0.90279,-0.498007 -0.28891,1.035208 -0.94465,1.215364 -3.00925,2.550782 -4.9162,3.179893 -2.21616,0.731115 -6.021,0.660034 -8.33216,-0.155657 z M 112.03834,64.44499 c 0.0877,-0.327422 0.16116,-0.744141 0.16315,-0.926042 0.002,-0.181901 0.23899,-0.330729 0.52668,-0.330729 0.77093,0 1.20836,-0.889932 1.85324,-3.770312 l 0.57755,-2.579688 h 1.03661 c 0.57014,0 1.03662,0.0639 1.03662,0.141989 0,0.589446 -1.45871,6.484829 -1.7409,7.035844 -0.43272,0.844955 -0.85505,1.02425 -2.41264,1.02425 -1.11517,0 -1.18859,-0.04201 -1.04031,-0.595312 z m 8.54521,-2.572051 c -2.18515,-0.422471 -2.95985,-2.251402 -2.17765,-5.141067 0.77062,-2.846889 2.53857,-4.391569 5.02633,-4.391569 3.50291,0 4.76631,2.313564 3.37428,6.179043 -0.55082,1.529578 -0.55131,1.550522 -0.039,1.684505 0.59048,0.154413 0.62093,0.300057 0.26077,1.247352 -0.25389,0.667771 -0.29962,0.678194 -2.84427,0.648256 -1.42243,-0.01674 -3.04266,-0.118669 -3.6005,-0.22652 z m 4.08404,-3.579511 c 0.68752,-2.208041 0.64517,-2.891756 -0.22133,-3.573351 -1.38129,-1.086516 -3.21926,-0.109573 -3.74856,1.992482 -0.64962,2.579889 -0.15579,3.365329 2.04097,3.24618 l 1.43461,-0.07781 z m 12.86396,3.581895 c -1.43174,-0.277456 -1.82284,-0.894162 -1.68428,-2.655854 0.2682,-3.410106 1.65207,-4.890462 4.57432,-4.893244 2.1871,-0.0021 2.73976,0.481857 2.73976,2.39907 0,2.247119 0.0221,2.229591 -2.80643,2.229591 -1.98747,0 -2.48524,0.07636 -2.48524,0.38126 0,0.61193 0.53491,0.801004 2.66401,0.941657 l 2.00254,0.132291 -0.22417,0.859896 -0.22417,0.859896 -1.77837,-0.03043 c -0.97811,-0.01674 -2.22819,-0.117596 -2.77797,-0.224136 z m 3.77772,-4.851895 c 0,-0.579463 -0.59385,-0.978959 -1.45521,-0.978959 -0.86136,0 -1.45521,0.399496 -1.45521,0.978959 0,0.24053 0.43758,0.343958 1.45521,0.343958 1.01763,0 1.45521,-0.103428 1.45521,-0.343958 z m -12.32966,4.644481 c -0.16012,-0.109715 -0.44069,-0.483238 -0.6235,-0.830051 -0.35476,-0.67306 -0.27685,-1.526523 0.41946,-4.594951 l 0.40528,-1.785938 h 0.98542 0.98543 l -0.48959,2.423415 c -0.26928,1.332878 -0.42835,2.583034 -0.35348,2.778125 0.0817,0.212867 0.54978,0.35471 1.17058,0.35471 h 1.03447 l 0.44267,-1.785937 c 0.99953,-4.032669 0.86865,-3.770313 1.88082,-3.770313 0.50372,0 0.9118,0.0893 0.90685,0.198438 -0.005,0.109141 -0.34008,1.74625 -0.74474,3.638021 l -0.73576,3.439583 -2.49639,0.06719 c -1.37303,0.03695 -2.62741,-0.02258 -2.78752,-0.132292 z m 14.57205,-0.397919 c 0.0747,-0.327422 0.4202,-1.940661 0.76779,-3.584976 0.3476,-1.644315 0.67732,-3.034991 0.73272,-3.09039 0.0937,-0.09366 3.46023,-0.198675 5.01202,-0.156344 0.69829,0.01905 1.47334,1.110447 1.1547,1.626016 -0.0832,0.134616 -1.13816,0.244757 -2.34435,0.244757 h -2.19309 l -0.60968,2.778125 -0.60969,2.778125 h -1.02311 c -0.92486,0 -1.01008,-0.05717 -0.88731,-0.595313 z m 6.43807,-0.405932 c 0.0538,-0.564303 -0.0913,-1.663047 -0.32256,-2.441653 -0.23122,-0.778606 -0.4204,-1.453568 -0.4204,-1.499916 0,-0.04635 0.5275,-0.08427 1.17222,-0.08427 1.0142,0 1.18362,0.08025 1.25677,0.595313 0.0693,0.488086 0.38796,0.17832 1.76905,-1.719792 l 1.68449,-2.315104 h 1.19118 1.19118 l -0.64698,0.859896 c -3.62824,4.822318 -4.50609,6.085134 -4.67667,6.727552 -0.17002,0.640277 -0.34811,0.758139 -1.24723,0.825453 l -1.0489,0.07853 z m -34.51181,-5.414901 c 0.0877,-0.327422 0.16117,-0.684609 0.16315,-0.79375 0.002,-0.109141 0.47987,-0.198438 1.06195,-0.198438 1.11188,0 1.14699,0.03908 0.89157,0.992188 -0.13173,0.491553 -0.344,0.595312 -1.21787,0.595312 -0.96841,0 -1.04478,-0.05058 -0.8988,-0.595312 z"
       id="path78" />
    <path
       style="fill:#0867ab;fill-opacity:1;stroke-width:0.133635"
       d="m 133.38455,122.23801 c -3.89853,-0.23269 -6.2753,-0.71297 -9.08446,-1.83571 -11.99016,-4.79211 -20.12092,-15.13636 -21.3279,-27.134131 -0.19529,-1.941261 -0.083,-4.019659 0.34118,-6.316462 0.54995,-2.977665 1.49743,-5.34344 3.09722,-7.733548 0.87787,-1.31155 2.87279,-3.881697 2.95169,-3.802796 0.0316,0.03162 -0.0982,0.521044 -0.28851,1.087621 -1.02802,3.060813 -1.40277,7.428838 -0.94189,10.978636 0.43041,3.315031 1.24654,5.996361 2.8002,9.19979 1.68358,3.47129 3.68599,6.21306 6.63431,9.08394 2.69648,2.62566 5.24989,4.44937 8.53507,6.09597 4.89378,2.45288 9.18821,3.45658 14.78921,3.45658 7.08378,0 12.36405,-1.78363 17.12864,-5.78591 0.68678,-0.57689 1.28202,-1.01555 1.32277,-0.97481 0.11414,0.11415 -1.09123,2.03373 -1.97961,3.15258 -1.02874,1.29564 -3.39001,3.68093 -4.66769,4.71519 -3.99478,3.23368 -8.56118,5.05558 -14.1251,5.63562 -2.508,0.26145 -3.31494,0.28907 -5.18513,0.17744 z"
       id="path80" />
    <path
       style="fill:#0867ab;fill-opacity:1;stroke-width:0.133635"
       d="m 139.84515,103.53945 c -6.49096,-0.74416 -13.42911,-5.593228 -16.99084,-11.8749 -2.11137,-3.723711 -2.8672,-7.095593 -2.52154,-11.248927 0.20874,-2.508136 0.46439,-3.673329 1.10899,-5.054512 0.93547,-2.004404 2.92495,-5.276296 2.92072,-4.803406 -0.001,0.106153 -0.1296,0.583886 -0.28589,1.061631 -0.24437,0.746972 -0.29314,1.283915 -0.34817,3.833794 -0.0769,3.563191 0.0744,5.074237 0.69293,6.92164 1.82175,5.440884 5.62149,10.132002 10.64539,13.142656 5.75772,3.45041 12.76627,4.393583 18.51689,2.491904 2.55889,-0.846206 4.37175,-1.917888 6.49447,-3.839255 0.64312,-0.582115 1.1693,-1.000829 1.1693,-0.930476 0,0.399084 -2.36496,3.579003 -3.73255,5.018783 -2.05641,2.164948 -5.81066,4.221908 -8.94086,4.898698 -2.28445,0.49393 -6.24311,0.66734 -8.72884,0.38237 z"
       id="path82" />
    <path
       style="fill:#0867ab;fill-opacity:1;stroke-width:0.133635"
       d="m 147.7085,87.384476 c -1.8326,-0.208373 -3.81277,-0.849472 -5.43724,-1.760353 -2.34229,-1.313397 -4.80924,-3.947281 -6.17281,-6.590538 -0.96084,-1.862563 -1.10135,-2.537576 -1.09827,-5.276093 0.002,-2.079516 0.0361,-2.434841 0.30486,-3.207233 0.27974,-0.803979 1.61407,-3.392176 1.70298,-3.303264 0.0216,0.02157 -0.017,0.427846 -0.0856,0.90284 -0.2764,1.912491 -0.0989,4.006087 0.49239,5.808111 1.4035,4.277235 4.57948,7.678094 8.84447,9.470713 2.10567,0.885036 3.10127,1.060817 6.03458,1.065458 3.24052,0.0051 4.27358,-0.237913 5.98016,-1.406898 0.31237,-0.213971 0.56795,-0.351512 0.56795,-0.305649 0,0.04586 -0.27021,0.434543 -0.60047,0.863732 -1.12264,1.45896 -3.49552,2.934809 -5.57125,3.465126 -1.223,0.31246 -3.51203,0.438888 -4.96176,0.274048 z"
       id="path84" />
  </g>
</svg>
