<?xml version="1.0" encoding="UTF-8" standalone="no"?>
<svg
   xmlns:dc="http://purl.org/dc/elements/1.1/"
   xmlns:cc="http://creativecommons.org/ns#"
   xmlns:rdf="http://www.w3.org/1999/02/22-rdf-syntax-ns#"
   xmlns:svg="http://www.w3.org/2000/svg"
   xmlns="http://www.w3.org/2000/svg"
   xmlns:sodipodi="http://sodipodi.sourceforge.net/DTD/sodipodi-0.dtd"
   xmlns:inkscape="http://www.inkscape.org/namespaces/inkscape"
   width="192.61667mm"
   height="157.1275mm"
   viewBox="0 0 192.61667 157.1275"
   version="1.1"
   id="svg8"
   inkscape:version="1.0.1 (3bc2e813f5, 2020-09-07)"
   sodipodi:docname="RESTful_Logo.svg">
  <defs
     id="defs2">
    <inkscape:path-effect
       effect="bspline"
       id="path-effect50"
       is_visible="true"
       lpeversion="1"
       weight="33.333333"
       steps="2"
       helper_size="0"
       apply_no_weight="true"
       apply_with_weight="true"
       only_selected="false" />
    <inkscape:path-effect
       effect="bspline"
       id="path-effect46"
       is_visible="true"
       lpeversion="1"
       weight="33.333333"
       steps="2"
       helper_size="0"
       apply_no_weight="true"
       apply_with_weight="true"
       only_selected="false" />
    <inkscape:path-effect
       effect="bspline"
       id="path-effect36"
       is_visible="true"
       lpeversion="1"
       weight="33.333333"
       steps="2"
       helper_size="0"
       apply_no_weight="true"
       apply_with_weight="true"
       only_selected="false" />
  </defs>
  <sodipodi:namedview
     id="base"
     pagecolor="#ffffff"
     bordercolor="#666666"
     borderopacity="1.0"
     inkscape:pageopacity="0.0"
     inkscape:pageshadow="2"
     inkscape:zoom="0.98994949"
     inkscape:cx="293.58705"
     inkscape:cy="302.13815"
     inkscape:document-units="mm"
     inkscape:current-layer="layer1"
     inkscape:document-rotation="0"
     showgrid="false"
     inkscape:snap-global="false"
     fit-margin-top="0"
     fit-margin-left="0"
     fit-margin-right="0"
     fit-margin-bottom="0"
     inkscape:pagecheckerboard="true"
     inkscape:window-width="1920"
     inkscape:window-height="1017"
     inkscape:window-x="-8"
     inkscape:window-y="-8"
     inkscape:window-maximized="1" />
  <metadata
     id="metadata5">
    <rdf:RDF>
      <cc:Work
         rdf:about="">
        <dc:format>image/svg+xml</dc:format>
        <dc:type
           rdf:resource="http://purl.org/dc/dcmitype/StillImage" />
        <dc:title></dc:title>
      </cc:Work>
    </rdf:RDF>
  </metadata>
  <g
     inkscape:label="Layer 1"
     inkscape:groupmode="layer"
     id="layer1"
     transform="translate(-23.337531,-13.744805)">
    <g
       id="g386"
       transform="translate(-4.0090453,0.53453909)">
      <path
         style="fill:#54a8fd;stroke-width:0.264583"
         d="m 115.98199,169.97553 c -2.92393,-0.44108 -9.01962,-1.98262 -12.03854,-3.04442 -13.362286,-4.69975 -25.300347,-15.64508 -31.8859,-29.23438 -4.114154,-8.48956 -5.731147,-15.91525 -5.491705,-25.21945 0.124079,-4.82145 0.579506,-7.49024 2.22064,-13.012844 2.073709,-6.97828 7.652451,-15.826108 18.205641,-28.873956 15.391144,-19.02944 26.456814,-35.940065 35.513124,-54.271359 0.84474,-1.70987 1.61062,-3.108855 1.70196,-3.108855 0.1796,0 1.45012,2.687715 4.12738,8.731251 7.42659,16.764432 18.03645,33.111563 33.57203,51.726043 6.09059,7.29764 11.98276,15.958794 14.93925,21.959812 1.43876,2.920373 2.56819,6.608198 3.444,11.245398 0.50719,2.68543 0.55778,3.633 0.43086,8.06979 -0.14415,5.03901 -0.36487,6.67706 -1.67563,12.43542 -3.98284,17.49722 -19.10835,34.03083 -36.35231,39.7365 -3.80176,1.25792 -9.25276,2.58613 -12.24401,2.98341 -2.79858,0.37169 -11.69025,0.29649 -14.46679,-0.12236 z m 4.75556,-46.58875 c 1.77548,-0.52726 2.6876,-1.19734 3.43148,-2.52089 0.72996,-1.29878 0.82243,-3.45813 0.19895,-4.6457 -0.6984,-1.33026 -1.73642,-1.87016 -5.51286,-2.86738 -2.47042,-0.65234 -3.67399,-1.10005 -3.99761,-1.48705 -1.14424,-1.36833 -0.0224,-2.89988 2.24693,-3.06748 1.75168,-0.12936 3.08937,0.50317 3.62166,1.71251 0.36455,0.82828 0.4351,0.8599 1.91823,0.8599 1.47122,0 1.53975,-0.0298 1.53975,-0.66996 0,-1.64295 -1.38794,-3.44022 -3.26089,-4.2226 -1.5988,-0.66786 -4.07872,-0.79814 -5.77978,-0.30363 -1.1054,0.32135 -1.73631,0.71688 -2.54783,1.59727 -1.17799,1.27797 -1.52137,2.39137 -1.31157,4.25274 0.26435,2.34531 1.64478,3.34913 5.9624,4.33574 2.95167,0.67449 3.96713,1.16106 4.1782,2.00206 0.35995,1.43416 -1.16631,2.53373 -3.51589,2.53297 -1.73377,-5.3e-4 -3.05034,-0.69802 -3.37051,-1.78553 -0.25089,-0.85223 -0.26799,-0.8599 -1.91823,-0.8599 -1.60834,0 -1.66507,0.023 -1.66507,0.6746 0,0.73555 0.60727,2.08295 1.28868,2.85929 1.50229,1.71158 5.55372,2.4762 8.49396,1.60304 z m 35.18911,-0.10606 c 0.56642,-0.28896 1.10448,-0.64615 1.1957,-0.79375 0.30556,-0.49441 0.6638,-0.27514 0.6638,0.40629 0,0.65414 0.0463,0.67225 1.52135,0.59532 l 1.52136,-0.0794 -0.0237,-6.21771 -0.0237,-6.21771 -1.62991,-0.0788 -1.62992,-0.0788 v 4.12681 c 0,4.36028 -0.2206,5.36266 -1.30826,5.94476 -0.79596,0.42598 -2.0127,0.32097 -2.69733,-0.2328 -0.6072,-0.49115 -0.62694,-0.63502 -0.70782,-5.15938 l -0.0832,-4.65414 h -1.58587 -1.58587 l 0.0816,5.27311 c 0.0749,4.84457 0.1261,5.33376 0.62954,6.01928 1.19884,1.63241 3.71253,2.14152 5.66232,1.14681 z m -73.546751,-3.04649 v -3.30729 h 2.513542 c 3.284667,0 3.426788,0.13065 3.656094,3.36116 0.239337,3.37178 0.149929,3.25342 2.45763,3.25342 1.075836,0 1.952281,-0.0893 1.947654,-0.19844 -0.0046,-0.10914 -0.183224,-0.42955 -0.396875,-0.71203 -0.263901,-0.3489 -0.388462,-1.17056 -0.388462,-2.56246 0,-2.37772 -0.281749,-3.32076 -1.22429,-4.09781 l -0.678395,-0.55928 0.798444,-0.56854 c 1.721752,-1.226 2.095259,-4.3329 0.762931,-6.34618 -1.178081,-1.7802 -1.994831,-2.00109 -7.794627,-2.10799 l -5.093229,-0.0939 -0.02617,6.96966 c -0.02461,6.55686 -0.02098,9.6196 0.01193,10.07851 0.0078,0.10914 0.788136,0.19844 1.734021,0.19844 h 1.719792 v -3.30729 z m 0,-8.59896 v -2.38125 h 2.657859 c 2.46915,0 2.703973,0.0461 3.307291,0.64943 0.477856,0.47786 0.649433,0.9354 0.649433,1.73182 0,0.79642 -0.171577,1.25396 -0.649433,1.73182 -0.603318,0.60332 -0.838141,0.64943 -3.307291,0.64943 h -2.657859 z m 26.458331,10.31875 v -1.5875 h -4.7625 -4.762498 v -2.11667 -2.11666 h 4.233338 4.23333 v -1.45521 -1.45521 h -4.23333 -4.233338 v -1.85208 -1.85209 h 4.630208 c 5.15708,0 4.80265,0.15243 4.46039,-1.91823 l -0.164,-0.99218 h -6.18309 -6.183091 v 8.29027 c 0,4.55966 0.07937,8.36966 0.17639,8.46667 0.09701,0.097 3.014043,0.17639 6.482291,0.17639 h 6.3059 z m 25.92917,-5.55625 v -7.14375 h 2.64583 2.64584 v -1.45521 -1.45521 h -6.87917 -6.87917 v 1.45521 1.45521 h 2.51354 2.51355 v 7.14375 7.14375 h 1.71979 1.71979 z m 10.84792,1.98438 v -5.15938 h 1.05833 1.05833 v -1.19063 -1.19062 h -1.05833 c -0.98274,0 -1.05833,-0.0529 -1.05833,-0.74083 0,-0.94018 0.43565,-1.37584 1.37583,-1.37584 0.71524,0 0.74083,-0.0469 0.74083,-1.35914 v -1.35914 l -1.71972,0.13805 c -2.70813,0.21738 -3.57194,1.06948 -3.57194,3.5235 0,1.16464 -0.007,1.1734 -0.92605,1.1734 -0.92114,0 -0.92604,0.006 -0.92604,1.19062 0,1.18433 0.005,1.19063 0.92604,1.19063 h 0.92605 v 5.15938 5.15937 h 1.5875 1.5875 z m 21.89793,-3.50573 0.0698,-8.53282 h -1.72345 -1.72346 v 8.61159 8.61158 l 1.65364,-0.0788 1.65365,-0.0788 z m -96.57658,52.13463 c 0.327422,-0.0631 0.863203,-0.0631 1.190625,0 0.327422,0.0631 0.05953,0.11466 -0.595313,0.11466 -0.654843,0 -0.922734,-0.0516 -0.595312,-0.11466 z m 104.24892,-5.3e-4 c 0.32912,-0.0633 0.80537,-0.0609 1.05833,0.005 0.25297,0.0662 -0.0163,0.11801 -0.5984,0.11507 -0.58208,-0.003 -0.78905,-0.0571 -0.45993,-0.12041 z m 3.63493,-16.4815 c 0.26339,-0.29104 0.53843,-0.52917 0.61119,-0.52917 0.0728,0 -0.0832,0.23813 -0.3466,0.52917 -0.26339,0.29104 -0.53842,0.52917 -0.61118,0.52917 -0.0728,0 0.0832,-0.23813 0.34659,-0.52917 z m 24.78032,-6.61458 c 0,-0.3638 0.0601,-0.51263 0.13345,-0.33073 0.0734,0.1819 0.0734,0.47956 0,0.66146 -0.0734,0.1819 -0.13345,0.0331 -0.13345,-0.33073 z m -20.89228,-3.83646 c 0.005,-0.43656 0.0647,-0.58313 0.13178,-0.32569 0.0671,0.25743 0.0627,0.61461 -0.01,0.79375 -0.0725,0.17913 -0.12736,-0.0315 -0.12197,-0.46806 z M 64.165434,116.92694 c 0,-0.36381 0.06005,-0.51263 0.133453,-0.33073 0.0734,0.1819 0.0734,0.47955 0,0.66146 -0.0734,0.1819 -0.133453,0.0331 -0.133453,-0.33073 z m -20.922969,-1.21268 c 0.0127,-0.30822 0.07539,-0.37092 0.15985,-0.15985 0.07643,0.191 0.06703,0.4192 -0.02088,0.50712 -0.08792,0.0879 -0.150453,-0.0684 -0.138965,-0.34727 z M 188.74241,100.39048 c 0.49365,-0.509325 0.95708,-0.926044 1.02984,-0.926044 0.0728,0 -0.2716,0.416719 -0.76526,0.926044 -0.49365,0.50932 -0.95708,0.92604 -1.02984,0.92604 -0.0728,0 0.2716,-0.41672 0.76526,-0.92604 z m 30.82396,-7.143752 c 0,-2.664344 0.0893,-4.789073 0.19843,-4.72162 0.10915,0.06745 0.19844,2.192182 0.19844,4.72162 0,2.529438 -0.0893,4.654166 -0.19844,4.721619 -0.10914,0.06745 -0.19843,-2.057276 -0.19843,-4.721619 z m -29.79938,-7.209896 c -0.32911,-0.419646 -0.31975,-0.429004 0.0999,-0.0999 0.25466,0.199721 0.46302,0.408081 0.46302,0.463021 0,0.217763 -0.21727,0.0776 -0.56292,-0.363124 z m 19.32831,-3.175001 -0.64143,-0.727604 0.7276,0.641432 c 0.40018,0.35279 0.72761,0.680212 0.72761,0.727604 0,0.207508 -0.21426,0.03862 -0.81378,-0.641432 z M 43.273156,68.640477 c 0.0054,-0.436563 0.06469,-0.583126 0.131773,-0.325694 0.06708,0.257431 0.06267,0.614619 -0.0098,0.79375 -0.07248,0.17913 -0.127363,-0.03149 -0.121971,-0.468056 z m 20.892278,-0.132292 c 0,-0.363802 0.06005,-0.51263 0.133453,-0.330729 0.0734,0.181901 0.0734,0.479557 0,0.661458 -0.0734,0.181901 -0.133453,0.03307 -0.133453,-0.330729 z M 182.69877,45.489434 c 0,-0.363802 0.06,-0.51263 0.13345,-0.330729 0.0734,0.181901 0.0734,0.479557 0,0.661458 -0.0734,0.181901 -0.13345,0.03307 -0.13345,-0.330729 z m 20.90208,-1.5875 c 0,-0.363802 0.0601,-0.51263 0.13345,-0.330729 0.0734,0.181901 0.0734,0.479557 0,0.661458 -0.0734,0.181901 -0.13345,0.03307 -0.13345,-0.330729 z m -24.40347,-8.665104 -0.64143,-0.727605 0.7276,0.641432 c 0.40019,0.352791 0.72761,0.680213 0.72761,0.727605 0,0.207507 -0.21426,0.03862 -0.81378,-0.641432 z M 71.603173,19.112329 c 0.257432,-0.06708 0.614619,-0.06267 0.79375,0.0098 0.179131,0.07248 -0.03149,0.127362 -0.468056,0.12197 -0.436562,-0.0054 -0.583125,-0.06469 -0.325694,-0.131774 z m 103.452087,0 c 0.25743,-0.06708 0.61462,-0.06267 0.79375,0.0098 0.17913,0.07248 -0.0315,0.127362 -0.46806,0.12197 -0.43656,-0.0054 -0.58313,-0.06469 -0.32569,-0.131774 z"
         id="path390" />
      <path
         style="fill:#313131;stroke-width:0.264583"
         d="m 69.679909,166.91521 c -6.336276,-0.42384 -11.556648,-2.17806 -16.591034,-5.57513 -4.640112,-3.13103 -7.452627,-7.09626 -8.866743,-12.50079 -0.53335,-2.03838 -0.570299,-2.98136 -0.732052,-18.68319 -0.163187,-15.84082 -0.194365,-16.62328 -0.741188,-18.60033 -0.911024,-3.29386 -2.245823,-5.57998 -4.671693,-8.00124 -1.752767,-1.74944 -2.578441,-2.34366 -4.645207,-3.34305 -1.382448,-0.668481 -3.317213,-1.476931 -4.299479,-1.796556 l -1.785937,-0.581131 v -4.577739 -4.577736 l 2.558001,-1.012272 c 6.561091,-2.596407 10.231121,-5.996893 12.01392,-11.131561 1.331005,-3.833445 1.353815,-4.127434 1.556769,-20.064842 0.18151,-14.253353 0.223441,-15.202208 0.763847,-17.284653 2.09368,-8.067988 6.202622,-13.297012 13.143883,-16.726857 4.198507,-2.074583 8.380561,-2.968081 15.538059,-3.319713 l 3.638021,-0.178728 v 6.243214 6.243214 l -1.12448,0.289378 c -6.542801,1.683737 -8.916886,3.706188 -10.399445,8.859144 -0.395099,1.373259 -0.482438,3.515673 -0.647168,15.875001 -0.204642,15.353594 -0.321482,16.774846 -1.730264,21.046988 -1.727914,5.239915 -5.934834,9.956444 -12.135845,13.605932 -1.348872,0.793855 -2.793701,1.573098 -3.210729,1.731653 -0.738828,0.2809 -0.673888,0.330345 2.537037,1.931752 4.160483,2.074984 6.282467,3.513513 8.454644,5.731542 2.077915,2.12178 3.25207,4.03988 4.252957,6.94761 1.480706,4.30168 1.618851,5.92786 1.826435,21.50036 0.204295,15.32564 0.198239,15.25851 1.665295,18.46298 1.330667,2.90656 3.541456,4.69871 7.931875,6.4299 l 2.579688,1.01719 v 6.16111 6.16111 l -1.91823,-0.0395 c -1.055026,-0.0217 -3.287447,-0.13111 -4.960937,-0.24305 z m 100.806251,-5.8797 v -6.23001 l 1.78594,-0.5835 c 5.69028,-1.85913 8.51335,-4.62107 9.90705,-9.69253 0.53806,-1.95791 0.57872,-2.8598 0.74931,-16.62232 0.16477,-13.29295 0.22703,-14.75813 0.71953,-16.93334 1.09837,-4.85117 2.4074,-7.50298 5.07372,-10.27831 2.06984,-2.154468 4.95971,-4.131358 8.73125,-5.972842 1.51658,-0.740484 2.80267,-1.391586 2.85798,-1.446895 0.0553,-0.05531 -0.82834,-0.601385 -1.96367,-1.213496 -7.22243,-3.893968 -11.94255,-8.857422 -13.84454,-14.558248 -1.31517,-3.941943 -1.36791,-4.612027 -1.56188,-19.843751 -0.1598,-12.5494 -0.24537,-14.677187 -0.65967,-16.404167 -0.60365,-2.516251 -2.07272,-5.352868 -3.30217,-6.376147 -1.31109,-1.091229 -3.71343,-2.196327 -6.31004,-2.902672 l -2.18281,-0.593783 v -6.213335 -6.213335 l 3.77031,0.18638 c 8.57848,0.424063 13.4527,1.699913 18.18183,4.759176 4.97516,3.218413 8.38932,7.9905 10.16749,14.211468 1.04288,3.648539 1.21787,6.497077 1.21787,19.825154 0,11.559027 0.0399,12.666361 0.54632,15.151285 1.55995,7.654777 5.30975,11.753144 13.60889,14.873889 l 1.5875,0.596953 v 4.672198 4.6722 l -1.93373,0.651174 c -7.02526,2.365734 -10.95672,6.110564 -13.03594,12.417104 -0.60266,1.82796 -0.61294,2.06751 -0.78926,18.38854 -0.15406,14.25989 -0.24132,16.80965 -0.63388,18.52084 -1.42749,6.22252 -4.31818,10.33938 -9.74258,13.87519 -5.4229,3.53482 -10.41745,4.94125 -18.90993,5.32488 l -4.03489,0.18227 z"
         id="path388" />
    </g>
  </g>
</svg>
