<?xml version="1.0" encoding="UTF-8" standalone="no"?>
<svg
   xmlns:dc="http://purl.org/dc/elements/1.1/"
   xmlns:cc="http://creativecommons.org/ns#"
   xmlns:rdf="http://www.w3.org/1999/02/22-rdf-syntax-ns#"
   xmlns:svg="http://www.w3.org/2000/svg"
   xmlns="http://www.w3.org/2000/svg"
   xmlns:sodipodi="http://sodipodi.sourceforge.net/DTD/sodipodi-0.dtd"
   xmlns:inkscape="http://www.inkscape.org/namespaces/inkscape"
   width="100.80624mm"
   height="134.68584mm"
   viewBox="0 0 100.80624 134.68584"
   version="1.1"
   id="svg8"
   inkscape:version="1.0.1 (3bc2e813f5, 2020-09-07)"
   sodipodi:docname="SQL_Logo.svg">
  <defs
     id="defs2">
    <inkscape:path-effect
       effect="bspline"
       id="path-effect50"
       is_visible="true"
       lpeversion="1"
       weight="33.333333"
       steps="2"
       helper_size="0"
       apply_no_weight="true"
       apply_with_weight="true"
       only_selected="false" />
    <inkscape:path-effect
       effect="bspline"
       id="path-effect46"
       is_visible="true"
       lpeversion="1"
       weight="33.333333"
       steps="2"
       helper_size="0"
       apply_no_weight="true"
       apply_with_weight="true"
       only_selected="false" />
    <inkscape:path-effect
       effect="bspline"
       id="path-effect36"
       is_visible="true"
       lpeversion="1"
       weight="33.333333"
       steps="2"
       helper_size="0"
       apply_no_weight="true"
       apply_with_weight="true"
       only_selected="false" />
  </defs>
  <sodipodi:namedview
     id="base"
     pagecolor="#ffffff"
     bordercolor="#666666"
     borderopacity="1.0"
     inkscape:pageopacity="0.0"
     inkscape:pageshadow="2"
     inkscape:zoom="0.98994949"
     inkscape:cx="80.883132"
     inkscape:cy="255.56417"
     inkscape:document-units="mm"
     inkscape:current-layer="layer1"
     inkscape:document-rotation="0"
     showgrid="false"
     inkscape:snap-global="false"
     fit-margin-top="0"
     fit-margin-left="0"
     fit-margin-right="0"
     fit-margin-bottom="0"
     inkscape:pagecheckerboard="true"
     inkscape:window-width="1920"
     inkscape:window-height="1017"
     inkscape:window-x="-8"
     inkscape:window-y="-8"
     inkscape:window-maximized="1" />
  <metadata
     id="metadata5">
    <rdf:RDF>
      <cc:Work
         rdf:about="">
        <dc:format>image/svg+xml</dc:format>
        <dc:type
           rdf:resource="http://purl.org/dc/dcmitype/StillImage" />
        <dc:title></dc:title>
      </cc:Work>
    </rdf:RDF>
  </metadata>
  <g
     inkscape:label="Layer 1"
     inkscape:groupmode="layer"
     id="layer1"
     transform="translate(-76.931974,-25.747211)">
    <path
       style="fill:#0079d6;fill-opacity:1;stroke-width:0.264583"
       d="m 120.8528,160.36331 c -9.88679,-0.75407 -17.76684,-2.17991 -24.810816,-4.48934 -9.38625,-3.07735 -16.0029,-7.4304 -18.26456,-12.01613 l -0.84545,-1.71423 V 92.925545 43.707483 l 0.72583,-1.549453 c 0.87439,-1.86659 3.78629,-4.881375 6.28562,-6.507709 5.67428,-3.692291 14.56895,-6.740717 24.743086,-8.480073 10.84386,-1.853849 25.57148,-1.900688 36.24337,-0.115267 11.76058,1.967558 21.28934,5.484961 27.31496,10.082917 2.22808,1.700178 3.72116,3.396698 4.75612,5.404151 l 0.73725,1.430017 v 49.344789 49.344795 l -0.68499,1.46024 c -3.49544,7.45151 -18.21551,13.63788 -37.49576,15.75826 -3.43783,0.37808 -15.87142,0.69926 -18.70466,0.48316 z m 22.09271,-42.29097 c 0,-0.0634 -2.01484,-1.83876 -4.47742,-3.94514 l -4.47741,-3.8298 0.82603,-0.34215 c 1.14561,-0.47452 3.91425,-3.27781 4.77058,-4.83026 1.29091,-2.34029 1.81132,-4.51742 1.81064,-7.574802 -0.001,-4.293486 -0.97617,-7.095799 -3.4127,-9.806301 -2.39171,-2.660653 -5.55794,-3.995476 -9.5918,-4.043728 -2.84446,-0.03402 -4.76443,0.363194 -6.87917,1.42321 -4.21983,2.115195 -6.86397,6.310031 -7.30411,11.587715 -0.60979,7.311936 3.71163,13.288336 10.65072,14.729626 2.04476,0.42471 2.03049,0.41305 6.56462,5.35792 l 1.27368,1.38906 h 5.12317 c 2.81774,0 5.12317,-0.0519 5.12317,-0.11535 z m -17.10637,-13.88907 c -1.45718,-0.66165 -2.35681,-2.2123 -2.74864,-4.737681 -0.32414,-2.089155 -0.0322,-4.772511 0.66422,-6.104979 0.41176,-0.787834 1.59541,-1.939531 2.4385,-2.372675 1.46753,-0.753962 3.90873,-0.10001 5.14222,1.377508 1.25498,1.503249 1.78815,5.792517 1.04845,8.434477 -0.89526,3.19755 -3.74002,4.67686 -6.54475,3.40335 z m -20.33217,6.94937 c 4.22267,-1.04409 6.82469,-4.09759 6.82469,-8.00885 0,-3.897098 -1.94078,-6.168216 -7.25751,-8.49281 -1.36268,-0.595794 -2.82917,-1.429539 -3.25888,-1.852766 -0.67821,-0.667994 -0.74744,-0.865722 -0.52477,-1.498872 0.34989,-0.994895 1.26633,-1.393548 3.2142,-1.39817 1.4291,-0.0034 3.98052,0.615376 5.96321,1.446194 0.4272,0.179014 0.46302,-0.07258 0.46302,-3.252663 v -3.446682 l -1.78594,-0.395176 c -2.76281,-0.611333 -5.28872,-0.76776 -7.62815,-0.472408 -3.224796,0.40713 -5.003136,1.176871 -6.743146,2.918719 -1.6993,1.701088 -2.3636,3.269194 -2.3636,5.579366 0,3.955357 2.07516,6.351267 7.44702,8.598108 2.455316,1.02696 2.994486,1.44983 3.273336,2.56723 0.13922,0.55791 0.0305,0.862 -0.49653,1.38906 -0.57209,0.57209 -0.91432,0.67477 -2.24896,0.67477 -1.808876,0 -4.844156,-0.93173 -6.409146,-1.96738 -0.56386,-0.37315 -1.09056,-0.67845 -1.17044,-0.67845 -0.0799,0 -0.11219,1.6919 -0.0718,3.75979 l 0.0734,3.75979 1.58751,0.48762 c 3.24096,0.9955 7.766166,1.11098 11.112496,0.28358 z m 57.28229,-3.13141 v -3.30729 h -4.63021 -4.63021 V 94.375189 84.056439 h -4.10104 -4.10104 v 13.626041 13.62604 h 8.73125 8.73125 z M 139.63822,54.321454 c 7.80912,-0.939622 13.47358,-2.33689 17.76891,-4.38311 5.37988,-2.562875 7.08088,-5.300434 5.12665,-8.250774 -2.41291,-3.642827 -10.11422,-6.475211 -21.96952,-8.079934 -5.17141,-0.699998 -21.28075,-0.700479 -26.45833,-7.94e-4 -5.13109,0.693406 -8.65563,1.407872 -12.10905,2.454652 -10.906966,3.306051 -13.750966,8.198631 -7.287236,12.536368 4.32784,2.904368 13.186386,5.182115 23.629616,6.075743 4.12998,0.353404 17.23605,0.13671 21.29896,-0.352155 z"
       id="path24" />
  </g>
</svg>
