<?xml version="1.0" encoding="UTF-8" standalone="no"?>
<svg
   xmlns:dc="http://purl.org/dc/elements/1.1/"
   xmlns:cc="http://creativecommons.org/ns#"
   xmlns:rdf="http://www.w3.org/1999/02/22-rdf-syntax-ns#"
   xmlns:svg="http://www.w3.org/2000/svg"
   xmlns="http://www.w3.org/2000/svg"
   xmlns:sodipodi="http://sodipodi.sourceforge.net/DTD/sodipodi-0.dtd"
   xmlns:inkscape="http://www.inkscape.org/namespaces/inkscape"
   width="234.4274mm"
   height="123.29583mm"
   viewBox="0 0 234.4274 123.29583"
   version="1.1"
   id="svg8"
   inkscape:version="1.0.1 (3bc2e813f5, 2020-09-07)"
   sodipodi:docname="NPCB.svg">
  <defs
     id="defs2">
    <inkscape:path-effect
       effect="bspline"
       id="path-effect50"
       is_visible="true"
       lpeversion="1"
       weight="33.333333"
       steps="2"
       helper_size="0"
       apply_no_weight="true"
       apply_with_weight="true"
       only_selected="false" />
    <inkscape:path-effect
       effect="bspline"
       id="path-effect46"
       is_visible="true"
       lpeversion="1"
       weight="33.333333"
       steps="2"
       helper_size="0"
       apply_no_weight="true"
       apply_with_weight="true"
       only_selected="false" />
    <inkscape:path-effect
       effect="bspline"
       id="path-effect36"
       is_visible="true"
       lpeversion="1"
       weight="33.333333"
       steps="2"
       helper_size="0"
       apply_no_weight="true"
       apply_with_weight="true"
       only_selected="false" />
  </defs>
  <sodipodi:namedview
     id="base"
     pagecolor="#ffffff"
     bordercolor="#666666"
     borderopacity="1.0"
     inkscape:pageopacity="0.0"
     inkscape:pageshadow="2"
     inkscape:zoom="0.98994949"
     inkscape:cx="601.35575"
     inkscape:cy="277.45887"
     inkscape:document-units="mm"
     inkscape:current-layer="layer1"
     inkscape:document-rotation="0"
     showgrid="false"
     inkscape:snap-global="false"
     fit-margin-top="0"
     fit-margin-left="0"
     fit-margin-right="0"
     fit-margin-bottom="0"
     inkscape:pagecheckerboard="true"
     inkscape:window-width="1920"
     inkscape:window-height="1017"
     inkscape:window-x="-8"
     inkscape:window-y="-8"
     inkscape:window-maximized="1" />
  <metadata
     id="metadata5">
    <rdf:RDF>
      <cc:Work
         rdf:about="">
        <dc:format>image/svg+xml</dc:format>
        <dc:type
           rdf:resource="http://purl.org/dc/dcmitype/StillImage" />
        <dc:title></dc:title>
      </cc:Work>
    </rdf:RDF>
  </metadata>
  <g
     inkscape:label="Layer 1"
     inkscape:groupmode="layer"
     id="layer1"
     transform="translate(-2.4221123,-21.609399)">
    <g
       id="g46"
       transform="translate(-7.2162763,0.80180859)">
      <path
         style="fill:#fe0000;stroke-width:0.264583"
         d="M 191.40715,118.2051 V 92.306776 l 0.59531,-0.135726 c 1.22397,-0.279056 49.02759,-15.79958 51.72604,-16.794027 0.26096,-0.09617 0.33073,2.019964 0.33073,10.030428 v 10.152311 l -16.53555,5.155688 -16.53556,5.15568 -0.14345,0.79375 c -0.0789,0.43656 -0.10907,4.71918 -0.067,9.51692 l 0.0764,8.72318 16.53646,0.008 16.53646,0.008 0.0694,9.59115 0.0694,9.59114 h -26.32934 -26.32934 v -25.89832 z"
         id="path50" />
      <path
         style="fill:#000000;stroke-width:0.264583"
         d="M 9.6383886,82.455505 V 20.80759 H 36.380695 63.123002 l 21.014987,20.946328 c 11.558244,11.52048 21.014991,21.082736 21.014991,21.249455 0,0.166722 0.35718,0.645338 0.79375,1.063591 l 0.79375,0.76046 V 42.817507 20.80759 h 20.37291 20.37292 v 61.647915 61.647915 h -20.37292 -20.37291 l -0.0433,-22.82031 -0.0433,-22.820314 L 78.783621,70.682957 50.91339,42.903117 V 93.503269 144.10342 H 30.275889 9.6383886 Z m 145.5208414,0 V 20.80759 h 44.45 44.45 v 24.606249 c 0,21.052533 -0.0541,24.60625 -0.37483,24.60625 -0.20615,0 -0.41451,0.101621 -0.46302,0.225822 -0.0935,0.23931 -55.283,18.030427 -55.9319,18.030427 -0.32821,0 -0.38025,3.820239 -0.38025,27.913542 v 27.91354 h -15.875 -15.875 z m 50.13947,-20.912851 21.29271,-6.736107 0.003,-9.98802 0.003,-9.988021 h -21.43125 -21.43125 l 0.0209,16.999479 c 0.0115,9.349713 0.0726,16.875569 0.13589,16.724127 0.0632,-0.151445 9.69671,-3.306601 21.4077,-7.011458 z"
         id="path48" />
    </g>
  </g>
</svg>
